<mxfile host="app.diagrams.net" modified="2021-10-25T02:04:37.723Z" agent="5.0 (Windows NT 10.0; Win64; x64) AppleWebKit/537.36 (KHTML, like Gecko) Chrome/95.0.4638.54 Safari/537.36 Edg/95.0.1020.30" etag="LeB9-zAACDSGR4y4zRom" version="15.5.9" type="github" pages="5">
  <diagram id="-Zuo92RV7tZAzJg80u6L" name="Admin-side">
    <mxGraphModel dx="1038" dy="656" grid="1" gridSize="10" guides="1" tooltips="1" connect="1" arrows="1" fold="1" page="1" pageScale="1" pageWidth="827" pageHeight="1169" math="0" shadow="0">
      <root>
        <mxCell id="-LoAXWamlNNe0DB5huc--0" />
        <mxCell id="-LoAXWamlNNe0DB5huc--1" parent="-LoAXWamlNNe0DB5huc--0" />
        <mxCell id="6SJ1erWJ1iZZkG3vzMZu-6" style="edgeStyle=none;rounded=0;orthogonalLoop=1;jettySize=auto;html=1;endArrow=none;endFill=0;" parent="-LoAXWamlNNe0DB5huc--1" source="dfLEApvsfWt8rVQpEWGw-2" target="6SJ1erWJ1iZZkG3vzMZu-2" edge="1">
          <mxGeometry relative="1" as="geometry" />
        </mxCell>
        <mxCell id="6SJ1erWJ1iZZkG3vzMZu-7" style="edgeStyle=none;rounded=0;orthogonalLoop=1;jettySize=auto;html=1;endArrow=none;endFill=0;entryX=0;entryY=0.5;entryDx=0;entryDy=0;" parent="-LoAXWamlNNe0DB5huc--1" source="dfLEApvsfWt8rVQpEWGw-2" target="6SJ1erWJ1iZZkG3vzMZu-3" edge="1">
          <mxGeometry relative="1" as="geometry" />
        </mxCell>
        <mxCell id="6SJ1erWJ1iZZkG3vzMZu-12" style="edgeStyle=none;rounded=0;orthogonalLoop=1;jettySize=auto;html=1;entryX=0;entryY=0.5;entryDx=0;entryDy=0;endArrow=none;endFill=0;" parent="-LoAXWamlNNe0DB5huc--1" source="dfLEApvsfWt8rVQpEWGw-2" target="6SJ1erWJ1iZZkG3vzMZu-4" edge="1">
          <mxGeometry relative="1" as="geometry" />
        </mxCell>
        <mxCell id="dfLEApvsfWt8rVQpEWGw-2" value="Admin" style="shape=umlActor;verticalLabelPosition=bottom;verticalAlign=top;html=1;" parent="-LoAXWamlNNe0DB5huc--1" vertex="1">
          <mxGeometry x="40" y="175" width="30" height="60" as="geometry" />
        </mxCell>
        <mxCell id="6SJ1erWJ1iZZkG3vzMZu-0" value="Admin-side ETMS" style="swimlane;" parent="-LoAXWamlNNe0DB5huc--1" vertex="1">
          <mxGeometry x="120" y="40" width="360" height="310" as="geometry" />
        </mxCell>
        <mxCell id="8PhH1nSelWTvEu4YC87S-11" value="1.1 Log in to the system" style="ellipse;whiteSpace=wrap;html=1;" parent="6SJ1erWJ1iZZkG3vzMZu-0" vertex="1">
          <mxGeometry x="220" y="220" width="120" height="70" as="geometry" />
        </mxCell>
        <mxCell id="6SJ1erWJ1iZZkG3vzMZu-1" value="1.2 Create trainers/staffs accounts" style="ellipse;whiteSpace=wrap;html=1;" parent="6SJ1erWJ1iZZkG3vzMZu-0" vertex="1">
          <mxGeometry x="220" y="90" width="120" height="70" as="geometry" />
        </mxCell>
        <mxCell id="6SJ1erWJ1iZZkG3vzMZu-2" value="1.3 Update profiles of trainers/staffs accounts" style="ellipse;whiteSpace=wrap;html=1;" parent="6SJ1erWJ1iZZkG3vzMZu-0" vertex="1">
          <mxGeometry x="20" y="40" width="120" height="70" as="geometry" />
        </mxCell>
        <mxCell id="6SJ1erWJ1iZZkG3vzMZu-3" value="1.4 Delete trainers/staffs accounts" style="ellipse;whiteSpace=wrap;html=1;" parent="6SJ1erWJ1iZZkG3vzMZu-0" vertex="1">
          <mxGeometry x="20" y="130" width="120" height="70" as="geometry" />
        </mxCell>
        <mxCell id="6SJ1erWJ1iZZkG3vzMZu-8" value="include" style="edgeStyle=none;rounded=0;orthogonalLoop=1;jettySize=auto;html=1;endArrow=open;endFill=0;dashed=1;" parent="6SJ1erWJ1iZZkG3vzMZu-0" source="6SJ1erWJ1iZZkG3vzMZu-1" target="8PhH1nSelWTvEu4YC87S-11" edge="1">
          <mxGeometry relative="1" as="geometry">
            <mxPoint x="330" y="190" as="sourcePoint" />
            <mxPoint x="273.9931236827922" y="282.2227366356399" as="targetPoint" />
          </mxGeometry>
        </mxCell>
        <mxCell id="6SJ1erWJ1iZZkG3vzMZu-10" value="include" style="edgeStyle=none;rounded=0;orthogonalLoop=1;jettySize=auto;html=1;endArrow=open;endFill=0;dashed=1;" parent="6SJ1erWJ1iZZkG3vzMZu-0" source="6SJ1erWJ1iZZkG3vzMZu-3" target="6SJ1erWJ1iZZkG3vzMZu-1" edge="1">
          <mxGeometry relative="1" as="geometry">
            <mxPoint x="370" y="355" as="sourcePoint" />
            <mxPoint x="310" y="355" as="targetPoint" />
          </mxGeometry>
        </mxCell>
        <mxCell id="6SJ1erWJ1iZZkG3vzMZu-4" value="1.5 Reset password of trainers/staffs accounts" style="ellipse;whiteSpace=wrap;html=1;" parent="6SJ1erWJ1iZZkG3vzMZu-0" vertex="1">
          <mxGeometry x="20" y="220" width="120" height="70" as="geometry" />
        </mxCell>
        <mxCell id="6SJ1erWJ1iZZkG3vzMZu-13" value="include" style="edgeStyle=none;rounded=0;orthogonalLoop=1;jettySize=auto;html=1;endArrow=open;endFill=0;dashed=1;" parent="6SJ1erWJ1iZZkG3vzMZu-0" source="6SJ1erWJ1iZZkG3vzMZu-4" target="8PhH1nSelWTvEu4YC87S-11" edge="1">
          <mxGeometry relative="1" as="geometry">
            <mxPoint x="190" y="210" as="sourcePoint" />
            <mxPoint x="310" y="355" as="targetPoint" />
          </mxGeometry>
        </mxCell>
        <mxCell id="199UKLYwYEcKiiT_Gsff-0" value="include" style="edgeStyle=none;rounded=0;orthogonalLoop=1;jettySize=auto;html=1;endArrow=open;endFill=0;dashed=1;" parent="6SJ1erWJ1iZZkG3vzMZu-0" source="6SJ1erWJ1iZZkG3vzMZu-2" target="6SJ1erWJ1iZZkG3vzMZu-1" edge="1">
          <mxGeometry relative="1" as="geometry">
            <mxPoint x="398.82892175542406" y="386.7246149126513" as="sourcePoint" />
            <mxPoint x="310" y="355" as="targetPoint" />
          </mxGeometry>
        </mxCell>
        <mxCell id="199UKLYwYEcKiiT_Gsff-3" style="edgeStyle=none;rounded=0;orthogonalLoop=1;jettySize=auto;html=1;endArrow=none;endFill=0;" parent="-LoAXWamlNNe0DB5huc--1" source="199UKLYwYEcKiiT_Gsff-2" target="6SJ1erWJ1iZZkG3vzMZu-1" edge="1">
          <mxGeometry relative="1" as="geometry" />
        </mxCell>
        <mxCell id="199UKLYwYEcKiiT_Gsff-2" value="Admin" style="shape=umlActor;verticalLabelPosition=bottom;verticalAlign=top;html=1;" parent="-LoAXWamlNNe0DB5huc--1" vertex="1">
          <mxGeometry x="520" y="135" width="30" height="60" as="geometry" />
        </mxCell>
      </root>
    </mxGraphModel>
  </diagram>
  <diagram name="Staff-side" id="1po6QaaU2Bc3IgVL_rf-">
    <mxGraphModel dx="1038" dy="656" grid="1" gridSize="10" guides="1" tooltips="1" connect="1" arrows="1" fold="1" page="1" pageScale="1" pageWidth="827" pageHeight="1169" math="0" shadow="0">
      <root>
        <mxCell id="h56xb-pAix-cF94XM59u-0" />
        <mxCell id="h56xb-pAix-cF94XM59u-1" parent="h56xb-pAix-cF94XM59u-0" />
        <mxCell id="h56xb-pAix-cF94XM59u-41" value="Staff-side course management ETMS" style="swimlane;" parent="h56xb-pAix-cF94XM59u-1" vertex="1">
          <mxGeometry x="100" y="40" width="500" height="400" as="geometry" />
        </mxCell>
        <mxCell id="gxbGyGHRIv_lXtZgMgUf-9" value="2.1 Log in to the system" style="ellipse;whiteSpace=wrap;html=1;" parent="h56xb-pAix-cF94XM59u-41" vertex="1">
          <mxGeometry x="20" y="150" width="120" height="70" as="geometry" />
        </mxCell>
        <mxCell id="gxbGyGHRIv_lXtZgMgUf-15" value="2.2 Manage Course Categories" style="ellipse;whiteSpace=wrap;html=1;" parent="h56xb-pAix-cF94XM59u-41" vertex="1">
          <mxGeometry x="220" y="60" width="120" height="70" as="geometry" />
        </mxCell>
        <mxCell id="gxbGyGHRIv_lXtZgMgUf-17" value="include" style="edgeStyle=none;rounded=0;orthogonalLoop=1;jettySize=auto;html=1;endArrow=open;endFill=0;dashed=1;exitX=0;exitY=0.5;exitDx=0;exitDy=0;" parent="h56xb-pAix-cF94XM59u-41" source="gxbGyGHRIv_lXtZgMgUf-15" target="gxbGyGHRIv_lXtZgMgUf-9" edge="1">
          <mxGeometry relative="1" as="geometry">
            <mxPoint x="354.88695607816476" y="578.2380247921317" as="sourcePoint" />
            <mxPoint x="222.15181087739325" y="499.90788824573247" as="targetPoint" />
          </mxGeometry>
        </mxCell>
        <mxCell id="gxbGyGHRIv_lXtZgMgUf-7" value="2.3 Manage Courses" style="ellipse;whiteSpace=wrap;html=1;" parent="h56xb-pAix-cF94XM59u-41" vertex="1">
          <mxGeometry x="220" y="150" width="120" height="70" as="geometry" />
        </mxCell>
        <mxCell id="gxbGyGHRIv_lXtZgMgUf-11" value="include" style="edgeStyle=none;rounded=0;orthogonalLoop=1;jettySize=auto;html=1;endArrow=open;endFill=0;dashed=1;" parent="h56xb-pAix-cF94XM59u-41" source="gxbGyGHRIv_lXtZgMgUf-7" target="gxbGyGHRIv_lXtZgMgUf-9" edge="1">
          <mxGeometry relative="1" as="geometry">
            <mxPoint x="360" y="365" as="sourcePoint" />
            <mxPoint x="232.8013250753056" y="447.3050249512728" as="targetPoint" />
          </mxGeometry>
        </mxCell>
        <mxCell id="gxbGyGHRIv_lXtZgMgUf-6" value="2.5 Search for trainees/trainers assigned to a course" style="ellipse;whiteSpace=wrap;html=1;" parent="h56xb-pAix-cF94XM59u-41" vertex="1">
          <mxGeometry x="210" y="270" width="140" height="70" as="geometry" />
        </mxCell>
        <mxCell id="gxbGyGHRIv_lXtZgMgUf-13" value="extend" style="edgeStyle=none;rounded=0;orthogonalLoop=1;jettySize=auto;html=1;endArrow=open;endFill=0;dashed=1;" parent="h56xb-pAix-cF94XM59u-41" source="gxbGyGHRIv_lXtZgMgUf-6" target="gxbGyGHRIv_lXtZgMgUf-7" edge="1">
          <mxGeometry relative="1" as="geometry">
            <mxPoint x="250" y="270" as="sourcePoint" />
            <mxPoint x="579.2514604063601" y="309.6929765238501" as="targetPoint" />
          </mxGeometry>
        </mxCell>
        <mxCell id="8oZ4ttDqQxbIGbRQ8x6d-5" value="CRUD courses" style="shape=note;whiteSpace=wrap;html=1;backgroundOutline=1;darkOpacity=0.05;size=15;" parent="h56xb-pAix-cF94XM59u-41" vertex="1">
          <mxGeometry x="40" y="290" width="110" height="60" as="geometry" />
        </mxCell>
        <mxCell id="8oZ4ttDqQxbIGbRQ8x6d-2" value="CRUD and Search course categories" style="shape=note;whiteSpace=wrap;html=1;backgroundOutline=1;darkOpacity=0.05;size=15;" parent="h56xb-pAix-cF94XM59u-41" vertex="1">
          <mxGeometry x="20" y="40" width="110" height="60" as="geometry" />
        </mxCell>
        <mxCell id="yhtcj-vrcM0yzFpx0v7x-3" value="" style="edgeStyle=none;rounded=0;orthogonalLoop=1;jettySize=auto;html=1;endArrow=none;endFill=0;dashed=1;" parent="h56xb-pAix-cF94XM59u-41" source="8oZ4ttDqQxbIGbRQ8x6d-2" target="gxbGyGHRIv_lXtZgMgUf-15" edge="1">
          <mxGeometry relative="1" as="geometry">
            <mxPoint x="656.5676569141123" y="310.00451765047717" as="sourcePoint" />
            <mxPoint x="550.0011111111111" y="387.6" as="targetPoint" />
          </mxGeometry>
        </mxCell>
        <mxCell id="yhtcj-vrcM0yzFpx0v7x-4" value="" style="edgeStyle=none;rounded=0;orthogonalLoop=1;jettySize=auto;html=1;endArrow=none;endFill=0;dashed=1;" parent="h56xb-pAix-cF94XM59u-41" source="8oZ4ttDqQxbIGbRQ8x6d-5" target="gxbGyGHRIv_lXtZgMgUf-7" edge="1">
          <mxGeometry relative="1" as="geometry">
            <mxPoint x="340" y="201.48648648648646" as="sourcePoint" />
            <mxPoint x="410.0642962574391" y="203.3801161150659" as="targetPoint" />
          </mxGeometry>
        </mxCell>
        <mxCell id="yhtcj-vrcM0yzFpx0v7x-5" style="edgeStyle=none;rounded=0;orthogonalLoop=1;jettySize=auto;html=1;entryX=1;entryY=0.5;entryDx=0;entryDy=0;endArrow=none;endFill=0;" parent="h56xb-pAix-cF94XM59u-1" source="gxbGyGHRIv_lXtZgMgUf-5" target="gxbGyGHRIv_lXtZgMgUf-15" edge="1">
          <mxGeometry relative="1" as="geometry" />
        </mxCell>
        <mxCell id="yhtcj-vrcM0yzFpx0v7x-6" style="edgeStyle=none;rounded=0;orthogonalLoop=1;jettySize=auto;html=1;entryX=1;entryY=0.5;entryDx=0;entryDy=0;endArrow=none;endFill=0;" parent="h56xb-pAix-cF94XM59u-1" source="gxbGyGHRIv_lXtZgMgUf-5" target="gxbGyGHRIv_lXtZgMgUf-7" edge="1">
          <mxGeometry relative="1" as="geometry" />
        </mxCell>
        <mxCell id="yhtcj-vrcM0yzFpx0v7x-8" style="edgeStyle=none;rounded=0;orthogonalLoop=1;jettySize=auto;html=1;entryX=1;entryY=0.5;entryDx=0;entryDy=0;endArrow=none;endFill=0;" parent="h56xb-pAix-cF94XM59u-1" source="gxbGyGHRIv_lXtZgMgUf-5" target="gxbGyGHRIv_lXtZgMgUf-6" edge="1">
          <mxGeometry relative="1" as="geometry" />
        </mxCell>
        <mxCell id="gxbGyGHRIv_lXtZgMgUf-5" value="Staff" style="shape=umlActor;verticalLabelPosition=bottom;verticalAlign=top;html=1;" parent="h56xb-pAix-cF94XM59u-1" vertex="1">
          <mxGeometry x="650" y="195" width="30" height="60" as="geometry" />
        </mxCell>
        <mxCell id="gxbGyGHRIv_lXtZgMgUf-26" style="edgeStyle=none;rounded=0;orthogonalLoop=1;jettySize=auto;html=1;endArrow=none;endFill=0;" parent="h56xb-pAix-cF94XM59u-1" source="gxbGyGHRIv_lXtZgMgUf-29" target="gxbGyGHRIv_lXtZgMgUf-21" edge="1">
          <mxGeometry relative="1" as="geometry" />
        </mxCell>
        <mxCell id="gxbGyGHRIv_lXtZgMgUf-27" style="edgeStyle=none;rounded=0;orthogonalLoop=1;jettySize=auto;html=1;endArrow=none;endFill=0;entryX=1;entryY=0.5;entryDx=0;entryDy=0;" parent="h56xb-pAix-cF94XM59u-1" source="gxbGyGHRIv_lXtZgMgUf-29" target="hnYTkVyJbjtZC2h11xVo-0" edge="1">
          <mxGeometry relative="1" as="geometry" />
        </mxCell>
        <mxCell id="gxbGyGHRIv_lXtZgMgUf-28" style="edgeStyle=none;rounded=0;orthogonalLoop=1;jettySize=auto;html=1;endArrow=none;endFill=0;" parent="h56xb-pAix-cF94XM59u-1" source="gxbGyGHRIv_lXtZgMgUf-29" target="gxbGyGHRIv_lXtZgMgUf-23" edge="1">
          <mxGeometry relative="1" as="geometry" />
        </mxCell>
        <mxCell id="gxbGyGHRIv_lXtZgMgUf-29" value="Staff" style="shape=umlActor;verticalLabelPosition=bottom;verticalAlign=top;html=1;" parent="h56xb-pAix-cF94XM59u-1" vertex="1">
          <mxGeometry x="660" y="615" width="30" height="60" as="geometry" />
        </mxCell>
        <mxCell id="8oZ4ttDqQxbIGbRQ8x6d-9" value="Staff-side trainee account management ETSM" style="swimlane;" parent="h56xb-pAix-cF94XM59u-1" vertex="1">
          <mxGeometry x="100" y="460" width="500" height="330" as="geometry" />
        </mxCell>
        <mxCell id="8oZ4ttDqQxbIGbRQ8x6d-10" value="2.1 Log in to the system" style="ellipse;whiteSpace=wrap;html=1;" parent="8oZ4ttDqQxbIGbRQ8x6d-9" vertex="1">
          <mxGeometry x="20" y="150" width="120" height="70" as="geometry" />
        </mxCell>
        <mxCell id="gxbGyGHRIv_lXtZgMgUf-21" value="2.6 Create trainee accounts&amp;nbsp;" style="ellipse;whiteSpace=wrap;html=1;" parent="8oZ4ttDqQxbIGbRQ8x6d-9" vertex="1">
          <mxGeometry x="260" y="40" width="120" height="70" as="geometry" />
        </mxCell>
        <mxCell id="gxbGyGHRIv_lXtZgMgUf-16" value="include" style="edgeStyle=none;rounded=0;orthogonalLoop=1;jettySize=auto;html=1;endArrow=open;endFill=0;dashed=1;exitX=0;exitY=0.5;exitDx=0;exitDy=0;" parent="8oZ4ttDqQxbIGbRQ8x6d-9" source="gxbGyGHRIv_lXtZgMgUf-21" target="8oZ4ttDqQxbIGbRQ8x6d-10" edge="1">
          <mxGeometry relative="1" as="geometry">
            <mxPoint x="546.6736674993947" y="237.39223608711745" as="sourcePoint" />
            <mxPoint x="260" y="-5" as="targetPoint" />
          </mxGeometry>
        </mxCell>
        <mxCell id="hnYTkVyJbjtZC2h11xVo-0" value="2.7 Delete trainees accounts" style="ellipse;whiteSpace=wrap;html=1;" parent="8oZ4ttDqQxbIGbRQ8x6d-9" vertex="1">
          <mxGeometry x="260" y="150" width="120" height="70" as="geometry" />
        </mxCell>
        <mxCell id="hnYTkVyJbjtZC2h11xVo-2" value="include" style="edgeStyle=none;rounded=0;orthogonalLoop=1;jettySize=auto;html=1;endArrow=open;endFill=0;dashed=1;" parent="8oZ4ttDqQxbIGbRQ8x6d-9" source="hnYTkVyJbjtZC2h11xVo-0" edge="1">
          <mxGeometry relative="1" as="geometry">
            <mxPoint x="520" y="460" as="sourcePoint" />
            <mxPoint x="320" y="110" as="targetPoint" />
          </mxGeometry>
        </mxCell>
        <mxCell id="gxbGyGHRIv_lXtZgMgUf-23" value="2.8 Update profiles of trainees accounts" style="ellipse;whiteSpace=wrap;html=1;" parent="8oZ4ttDqQxbIGbRQ8x6d-9" vertex="1">
          <mxGeometry x="260" y="240" width="120" height="70" as="geometry" />
        </mxCell>
        <mxCell id="SmueaSMCujVkVGMxf6vY-6" value="include" style="edgeStyle=none;rounded=0;orthogonalLoop=1;jettySize=auto;html=1;endArrow=open;endFill=0;dashed=1;exitX=0;exitY=0.5;exitDx=0;exitDy=0;" parent="8oZ4ttDqQxbIGbRQ8x6d-9" source="gxbGyGHRIv_lXtZgMgUf-23" target="8oZ4ttDqQxbIGbRQ8x6d-10" edge="1">
          <mxGeometry relative="1" as="geometry">
            <mxPoint x="370" y="545" as="sourcePoint" />
            <mxPoint x="231.42854480095014" y="629.6825559549748" as="targetPoint" />
          </mxGeometry>
        </mxCell>
        <mxCell id="BoXGeNyAcBQrCWCWEHar-0" value="Staff-side assign trainers/trainees to a courses" style="swimlane;" parent="h56xb-pAix-cF94XM59u-1" vertex="1">
          <mxGeometry x="100" y="840" width="500" height="320" as="geometry" />
        </mxCell>
        <mxCell id="BoXGeNyAcBQrCWCWEHar-2" value="2.1 Log in to the system" style="ellipse;whiteSpace=wrap;html=1;" parent="BoXGeNyAcBQrCWCWEHar-0" vertex="1">
          <mxGeometry x="20" y="139" width="120" height="70" as="geometry" />
        </mxCell>
        <mxCell id="BoXGeNyAcBQrCWCWEHar-20" value="include" style="edgeStyle=none;rounded=0;orthogonalLoop=1;jettySize=auto;html=1;endArrow=open;endFill=0;dashed=1;" parent="BoXGeNyAcBQrCWCWEHar-0" source="SmueaSMCujVkVGMxf6vY-3" target="BoXGeNyAcBQrCWCWEHar-2" edge="1">
          <mxGeometry relative="1" as="geometry">
            <mxPoint x="740" y="239" as="sourcePoint" />
            <mxPoint x="640" y="249" as="targetPoint" />
          </mxGeometry>
        </mxCell>
        <mxCell id="gxbGyGHRIv_lXtZgMgUf-8" value="2.10 Assign/remove trainees to/from a specific course" style="ellipse;whiteSpace=wrap;html=1;" parent="BoXGeNyAcBQrCWCWEHar-0" vertex="1">
          <mxGeometry x="220" y="139" width="120" height="70" as="geometry" />
        </mxCell>
        <mxCell id="BoXGeNyAcBQrCWCWEHar-9" value="2.11 Assign/remove trainers to/from a specific course" style="ellipse;whiteSpace=wrap;html=1;" parent="BoXGeNyAcBQrCWCWEHar-0" vertex="1">
          <mxGeometry x="220" y="230" width="120" height="70" as="geometry" />
        </mxCell>
        <mxCell id="SmueaSMCujVkVGMxf6vY-2" value="include" style="edgeStyle=none;rounded=0;orthogonalLoop=1;jettySize=auto;html=1;endArrow=open;endFill=0;dashed=1;exitX=0;exitY=0.5;exitDx=0;exitDy=0;" parent="BoXGeNyAcBQrCWCWEHar-0" source="BoXGeNyAcBQrCWCWEHar-9" target="BoXGeNyAcBQrCWCWEHar-2" edge="1">
          <mxGeometry relative="1" as="geometry">
            <mxPoint x="279.3748313672486" y="449.00349585733034" as="sourcePoint" />
            <mxPoint x="120" y="379" as="targetPoint" />
          </mxGeometry>
        </mxCell>
        <mxCell id="SmueaSMCujVkVGMxf6vY-1" value="include" style="edgeStyle=none;rounded=0;orthogonalLoop=1;jettySize=auto;html=1;endArrow=open;endFill=0;dashed=1;exitX=0;exitY=0.5;exitDx=0;exitDy=0;" parent="BoXGeNyAcBQrCWCWEHar-0" source="gxbGyGHRIv_lXtZgMgUf-8" target="BoXGeNyAcBQrCWCWEHar-2" edge="1">
          <mxGeometry relative="1" as="geometry">
            <mxPoint x="269.3748313672486" y="439.00349585733034" as="sourcePoint" />
            <mxPoint x="110" y="369" as="targetPoint" />
          </mxGeometry>
        </mxCell>
        <mxCell id="SmueaSMCujVkVGMxf6vY-3" value="2.9 Search for trainers/trainees by enrolled course name" style="ellipse;whiteSpace=wrap;html=1;" parent="BoXGeNyAcBQrCWCWEHar-0" vertex="1">
          <mxGeometry x="220" y="40" width="120" height="70" as="geometry" />
        </mxCell>
        <mxCell id="BoXGeNyAcBQrCWCWEHar-26" style="edgeStyle=none;rounded=0;orthogonalLoop=1;jettySize=auto;html=1;endArrow=none;endFill=0;" parent="h56xb-pAix-cF94XM59u-1" source="BoXGeNyAcBQrCWCWEHar-7" target="gxbGyGHRIv_lXtZgMgUf-8" edge="1">
          <mxGeometry relative="1" as="geometry" />
        </mxCell>
        <mxCell id="BoXGeNyAcBQrCWCWEHar-28" style="edgeStyle=none;rounded=0;orthogonalLoop=1;jettySize=auto;html=1;entryX=1;entryY=0.5;entryDx=0;entryDy=0;endArrow=none;endFill=0;" parent="h56xb-pAix-cF94XM59u-1" source="BoXGeNyAcBQrCWCWEHar-7" target="BoXGeNyAcBQrCWCWEHar-9" edge="1">
          <mxGeometry relative="1" as="geometry" />
        </mxCell>
        <mxCell id="SmueaSMCujVkVGMxf6vY-9" style="rounded=0;orthogonalLoop=1;jettySize=auto;html=1;endArrow=none;endFill=0;" parent="h56xb-pAix-cF94XM59u-1" source="BoXGeNyAcBQrCWCWEHar-7" target="SmueaSMCujVkVGMxf6vY-3" edge="1">
          <mxGeometry relative="1" as="geometry" />
        </mxCell>
        <mxCell id="BoXGeNyAcBQrCWCWEHar-7" value="Staff" style="shape=umlActor;verticalLabelPosition=bottom;verticalAlign=top;html=1;" parent="h56xb-pAix-cF94XM59u-1" vertex="1">
          <mxGeometry x="660" y="984" width="30" height="60" as="geometry" />
        </mxCell>
      </root>
    </mxGraphModel>
  </diagram>
  <diagram id="DFRwfie9tOU8dmDg7rkG" name="ERD">
    <mxGraphModel dx="1038" dy="656" grid="1" gridSize="10" guides="1" tooltips="1" connect="1" arrows="1" fold="1" page="1" pageScale="1" pageWidth="827" pageHeight="1169" math="0" shadow="0">
      <root>
        <mxCell id="ZLjGLMDozAA01at8S0_N-0" />
        <mxCell id="ZLjGLMDozAA01at8S0_N-1" parent="ZLjGLMDozAA01at8S0_N-0" />
        <mxCell id="ZLjGLMDozAA01at8S0_N-2" value="AspNetUsers" style="shape=table;startSize=30;container=1;collapsible=1;childLayout=tableLayout;fixedRows=1;rowLines=0;fontStyle=1;align=center;resizeLast=1;" parent="ZLjGLMDozAA01at8S0_N-1" vertex="1">
          <mxGeometry x="360" y="80" width="160" height="270" as="geometry" />
        </mxCell>
        <mxCell id="ZLjGLMDozAA01at8S0_N-3" value="" style="shape=partialRectangle;collapsible=0;dropTarget=0;pointerEvents=0;fillColor=none;top=0;left=0;bottom=1;right=0;points=[[0,0.5],[1,0.5]];portConstraint=eastwest;" parent="ZLjGLMDozAA01at8S0_N-2" vertex="1">
          <mxGeometry y="30" width="160" height="30" as="geometry" />
        </mxCell>
        <mxCell id="ZLjGLMDozAA01at8S0_N-4" value="PK" style="shape=partialRectangle;connectable=0;fillColor=none;top=0;left=0;bottom=0;right=0;fontStyle=1;overflow=hidden;" parent="ZLjGLMDozAA01at8S0_N-3" vertex="1">
          <mxGeometry width="30" height="30" as="geometry">
            <mxRectangle width="30" height="30" as="alternateBounds" />
          </mxGeometry>
        </mxCell>
        <mxCell id="ZLjGLMDozAA01at8S0_N-5" value="Id" style="shape=partialRectangle;connectable=0;fillColor=none;top=0;left=0;bottom=0;right=0;align=left;spacingLeft=6;fontStyle=5;overflow=hidden;" parent="ZLjGLMDozAA01at8S0_N-3" vertex="1">
          <mxGeometry x="30" width="130" height="30" as="geometry">
            <mxRectangle width="130" height="30" as="alternateBounds" />
          </mxGeometry>
        </mxCell>
        <mxCell id="ZLjGLMDozAA01at8S0_N-6" value="" style="shape=partialRectangle;collapsible=0;dropTarget=0;pointerEvents=0;fillColor=none;top=0;left=0;bottom=0;right=0;points=[[0,0.5],[1,0.5]];portConstraint=eastwest;" parent="ZLjGLMDozAA01at8S0_N-2" vertex="1">
          <mxGeometry y="60" width="160" height="30" as="geometry" />
        </mxCell>
        <mxCell id="ZLjGLMDozAA01at8S0_N-7" value="" style="shape=partialRectangle;connectable=0;fillColor=none;top=0;left=0;bottom=0;right=0;editable=1;overflow=hidden;" parent="ZLjGLMDozAA01at8S0_N-6" vertex="1">
          <mxGeometry width="30" height="30" as="geometry">
            <mxRectangle width="30" height="30" as="alternateBounds" />
          </mxGeometry>
        </mxCell>
        <mxCell id="ZLjGLMDozAA01at8S0_N-8" value="UserName" style="shape=partialRectangle;connectable=0;fillColor=none;top=0;left=0;bottom=0;right=0;align=left;spacingLeft=6;overflow=hidden;" parent="ZLjGLMDozAA01at8S0_N-6" vertex="1">
          <mxGeometry x="30" width="130" height="30" as="geometry">
            <mxRectangle width="130" height="30" as="alternateBounds" />
          </mxGeometry>
        </mxCell>
        <mxCell id="ZLjGLMDozAA01at8S0_N-68" value="" style="shape=partialRectangle;collapsible=0;dropTarget=0;pointerEvents=0;fillColor=none;top=0;left=0;bottom=0;right=0;points=[[0,0.5],[1,0.5]];portConstraint=eastwest;" parent="ZLjGLMDozAA01at8S0_N-2" vertex="1">
          <mxGeometry y="90" width="160" height="30" as="geometry" />
        </mxCell>
        <mxCell id="ZLjGLMDozAA01at8S0_N-69" value="" style="shape=partialRectangle;connectable=0;fillColor=none;top=0;left=0;bottom=0;right=0;editable=1;overflow=hidden;" parent="ZLjGLMDozAA01at8S0_N-68" vertex="1">
          <mxGeometry width="30" height="30" as="geometry">
            <mxRectangle width="30" height="30" as="alternateBounds" />
          </mxGeometry>
        </mxCell>
        <mxCell id="ZLjGLMDozAA01at8S0_N-70" value="PasswordHash" style="shape=partialRectangle;connectable=0;fillColor=none;top=0;left=0;bottom=0;right=0;align=left;spacingLeft=6;overflow=hidden;" parent="ZLjGLMDozAA01at8S0_N-68" vertex="1">
          <mxGeometry x="30" width="130" height="30" as="geometry">
            <mxRectangle width="130" height="30" as="alternateBounds" />
          </mxGeometry>
        </mxCell>
        <mxCell id="XGphwFju55MRbVTztd3u-0" value="" style="shape=partialRectangle;collapsible=0;dropTarget=0;pointerEvents=0;fillColor=none;top=0;left=0;bottom=0;right=0;points=[[0,0.5],[1,0.5]];portConstraint=eastwest;" parent="ZLjGLMDozAA01at8S0_N-2" vertex="1">
          <mxGeometry y="120" width="160" height="30" as="geometry" />
        </mxCell>
        <mxCell id="XGphwFju55MRbVTztd3u-1" value="" style="shape=partialRectangle;connectable=0;fillColor=none;top=0;left=0;bottom=0;right=0;editable=1;overflow=hidden;" parent="XGphwFju55MRbVTztd3u-0" vertex="1">
          <mxGeometry width="30" height="30" as="geometry">
            <mxRectangle width="30" height="30" as="alternateBounds" />
          </mxGeometry>
        </mxCell>
        <mxCell id="XGphwFju55MRbVTztd3u-2" value="FullName" style="shape=partialRectangle;connectable=0;fillColor=none;top=0;left=0;bottom=0;right=0;align=left;spacingLeft=6;overflow=hidden;" parent="XGphwFju55MRbVTztd3u-0" vertex="1">
          <mxGeometry x="30" width="130" height="30" as="geometry">
            <mxRectangle width="130" height="30" as="alternateBounds" />
          </mxGeometry>
        </mxCell>
        <mxCell id="ZLjGLMDozAA01at8S0_N-9" value="" style="shape=partialRectangle;collapsible=0;dropTarget=0;pointerEvents=0;fillColor=none;top=0;left=0;bottom=0;right=0;points=[[0,0.5],[1,0.5]];portConstraint=eastwest;" parent="ZLjGLMDozAA01at8S0_N-2" vertex="1">
          <mxGeometry y="150" width="160" height="30" as="geometry" />
        </mxCell>
        <mxCell id="ZLjGLMDozAA01at8S0_N-10" value="" style="shape=partialRectangle;connectable=0;fillColor=none;top=0;left=0;bottom=0;right=0;editable=1;overflow=hidden;" parent="ZLjGLMDozAA01at8S0_N-9" vertex="1">
          <mxGeometry width="30" height="30" as="geometry">
            <mxRectangle width="30" height="30" as="alternateBounds" />
          </mxGeometry>
        </mxCell>
        <mxCell id="ZLjGLMDozAA01at8S0_N-11" value="Email" style="shape=partialRectangle;connectable=0;fillColor=none;top=0;left=0;bottom=0;right=0;align=left;spacingLeft=6;overflow=hidden;" parent="ZLjGLMDozAA01at8S0_N-9" vertex="1">
          <mxGeometry x="30" width="130" height="30" as="geometry">
            <mxRectangle width="130" height="30" as="alternateBounds" />
          </mxGeometry>
        </mxCell>
        <mxCell id="ZLjGLMDozAA01at8S0_N-12" value="" style="shape=partialRectangle;collapsible=0;dropTarget=0;pointerEvents=0;fillColor=none;top=0;left=0;bottom=0;right=0;points=[[0,0.5],[1,0.5]];portConstraint=eastwest;" parent="ZLjGLMDozAA01at8S0_N-2" vertex="1">
          <mxGeometry y="180" width="160" height="30" as="geometry" />
        </mxCell>
        <mxCell id="ZLjGLMDozAA01at8S0_N-13" value="" style="shape=partialRectangle;connectable=0;fillColor=none;top=0;left=0;bottom=0;right=0;editable=1;overflow=hidden;" parent="ZLjGLMDozAA01at8S0_N-12" vertex="1">
          <mxGeometry width="30" height="30" as="geometry">
            <mxRectangle width="30" height="30" as="alternateBounds" />
          </mxGeometry>
        </mxCell>
        <mxCell id="ZLjGLMDozAA01at8S0_N-14" value="Age" style="shape=partialRectangle;connectable=0;fillColor=none;top=0;left=0;bottom=0;right=0;align=left;spacingLeft=6;overflow=hidden;" parent="ZLjGLMDozAA01at8S0_N-12" vertex="1">
          <mxGeometry x="30" width="130" height="30" as="geometry">
            <mxRectangle width="130" height="30" as="alternateBounds" />
          </mxGeometry>
        </mxCell>
        <mxCell id="ZLjGLMDozAA01at8S0_N-18" value="" style="shape=partialRectangle;collapsible=0;dropTarget=0;pointerEvents=0;fillColor=none;top=0;left=0;bottom=0;right=0;points=[[0,0.5],[1,0.5]];portConstraint=eastwest;" parent="ZLjGLMDozAA01at8S0_N-2" vertex="1">
          <mxGeometry y="210" width="160" height="30" as="geometry" />
        </mxCell>
        <mxCell id="ZLjGLMDozAA01at8S0_N-19" value="" style="shape=partialRectangle;connectable=0;fillColor=none;top=0;left=0;bottom=0;right=0;editable=1;overflow=hidden;" parent="ZLjGLMDozAA01at8S0_N-18" vertex="1">
          <mxGeometry width="30" height="30" as="geometry">
            <mxRectangle width="30" height="30" as="alternateBounds" />
          </mxGeometry>
        </mxCell>
        <mxCell id="ZLjGLMDozAA01at8S0_N-20" value="Address" style="shape=partialRectangle;connectable=0;fillColor=none;top=0;left=0;bottom=0;right=0;align=left;spacingLeft=6;overflow=hidden;" parent="ZLjGLMDozAA01at8S0_N-18" vertex="1">
          <mxGeometry x="30" width="130" height="30" as="geometry">
            <mxRectangle width="130" height="30" as="alternateBounds" />
          </mxGeometry>
        </mxCell>
        <mxCell id="XGphwFju55MRbVTztd3u-46" value="" style="shape=partialRectangle;collapsible=0;dropTarget=0;pointerEvents=0;fillColor=none;top=0;left=0;bottom=0;right=0;points=[[0,0.5],[1,0.5]];portConstraint=eastwest;" parent="ZLjGLMDozAA01at8S0_N-2" vertex="1">
          <mxGeometry y="240" width="160" height="30" as="geometry" />
        </mxCell>
        <mxCell id="XGphwFju55MRbVTztd3u-47" value="" style="shape=partialRectangle;connectable=0;fillColor=none;top=0;left=0;bottom=0;right=0;editable=1;overflow=hidden;" parent="XGphwFju55MRbVTztd3u-46" vertex="1">
          <mxGeometry width="30" height="30" as="geometry">
            <mxRectangle width="30" height="30" as="alternateBounds" />
          </mxGeometry>
        </mxCell>
        <mxCell id="XGphwFju55MRbVTztd3u-48" value="etc..." style="shape=partialRectangle;connectable=0;fillColor=none;top=0;left=0;bottom=0;right=0;align=left;spacingLeft=6;overflow=hidden;" parent="XGphwFju55MRbVTztd3u-46" vertex="1">
          <mxGeometry x="30" width="130" height="30" as="geometry">
            <mxRectangle width="130" height="30" as="alternateBounds" />
          </mxGeometry>
        </mxCell>
        <mxCell id="ZLjGLMDozAA01at8S0_N-21" value="AspNetRoles" style="shape=table;startSize=30;container=1;collapsible=1;childLayout=tableLayout;fixedRows=1;rowLines=0;fontStyle=1;align=center;resizeLast=1;" parent="ZLjGLMDozAA01at8S0_N-1" vertex="1">
          <mxGeometry x="600" y="200" width="160" height="90" as="geometry" />
        </mxCell>
        <mxCell id="ZLjGLMDozAA01at8S0_N-22" value="" style="shape=partialRectangle;collapsible=0;dropTarget=0;pointerEvents=0;fillColor=none;top=0;left=0;bottom=1;right=0;points=[[0,0.5],[1,0.5]];portConstraint=eastwest;" parent="ZLjGLMDozAA01at8S0_N-21" vertex="1">
          <mxGeometry y="30" width="160" height="30" as="geometry" />
        </mxCell>
        <mxCell id="ZLjGLMDozAA01at8S0_N-23" value="PK" style="shape=partialRectangle;connectable=0;fillColor=none;top=0;left=0;bottom=0;right=0;fontStyle=1;overflow=hidden;" parent="ZLjGLMDozAA01at8S0_N-22" vertex="1">
          <mxGeometry width="30" height="30" as="geometry">
            <mxRectangle width="30" height="30" as="alternateBounds" />
          </mxGeometry>
        </mxCell>
        <mxCell id="ZLjGLMDozAA01at8S0_N-24" value="ID" style="shape=partialRectangle;connectable=0;fillColor=none;top=0;left=0;bottom=0;right=0;align=left;spacingLeft=6;fontStyle=5;overflow=hidden;" parent="ZLjGLMDozAA01at8S0_N-22" vertex="1">
          <mxGeometry x="30" width="130" height="30" as="geometry">
            <mxRectangle width="130" height="30" as="alternateBounds" />
          </mxGeometry>
        </mxCell>
        <mxCell id="ZLjGLMDozAA01at8S0_N-25" value="" style="shape=partialRectangle;collapsible=0;dropTarget=0;pointerEvents=0;fillColor=none;top=0;left=0;bottom=0;right=0;points=[[0,0.5],[1,0.5]];portConstraint=eastwest;" parent="ZLjGLMDozAA01at8S0_N-21" vertex="1">
          <mxGeometry y="60" width="160" height="30" as="geometry" />
        </mxCell>
        <mxCell id="ZLjGLMDozAA01at8S0_N-26" value="" style="shape=partialRectangle;connectable=0;fillColor=none;top=0;left=0;bottom=0;right=0;editable=1;overflow=hidden;" parent="ZLjGLMDozAA01at8S0_N-25" vertex="1">
          <mxGeometry width="30" height="30" as="geometry">
            <mxRectangle width="30" height="30" as="alternateBounds" />
          </mxGeometry>
        </mxCell>
        <mxCell id="ZLjGLMDozAA01at8S0_N-27" value="Name" style="shape=partialRectangle;connectable=0;fillColor=none;top=0;left=0;bottom=0;right=0;align=left;spacingLeft=6;overflow=hidden;" parent="ZLjGLMDozAA01at8S0_N-25" vertex="1">
          <mxGeometry x="30" width="130" height="30" as="geometry">
            <mxRectangle width="130" height="30" as="alternateBounds" />
          </mxGeometry>
        </mxCell>
        <mxCell id="ZLjGLMDozAA01at8S0_N-53" value="AspNetUserRoles" style="shape=table;startSize=30;container=1;collapsible=1;childLayout=tableLayout;fixedRows=1;rowLines=0;fontStyle=1;align=center;resizeLast=1;" parent="ZLjGLMDozAA01at8S0_N-1" vertex="1">
          <mxGeometry x="600" y="80" width="160" height="90" as="geometry" />
        </mxCell>
        <mxCell id="ZLjGLMDozAA01at8S0_N-54" value="" style="shape=partialRectangle;collapsible=0;dropTarget=0;pointerEvents=0;fillColor=none;top=0;left=0;bottom=0;right=0;points=[[0,0.5],[1,0.5]];portConstraint=eastwest;" parent="ZLjGLMDozAA01at8S0_N-53" vertex="1">
          <mxGeometry y="30" width="160" height="30" as="geometry" />
        </mxCell>
        <mxCell id="ZLjGLMDozAA01at8S0_N-55" value="PK,FK1" style="shape=partialRectangle;connectable=0;fillColor=none;top=0;left=0;bottom=0;right=0;fontStyle=1;overflow=hidden;" parent="ZLjGLMDozAA01at8S0_N-54" vertex="1">
          <mxGeometry width="60" height="30" as="geometry">
            <mxRectangle width="60" height="30" as="alternateBounds" />
          </mxGeometry>
        </mxCell>
        <mxCell id="ZLjGLMDozAA01at8S0_N-56" value="UserId" style="shape=partialRectangle;connectable=0;fillColor=none;top=0;left=0;bottom=0;right=0;align=left;spacingLeft=6;fontStyle=5;overflow=hidden;" parent="ZLjGLMDozAA01at8S0_N-54" vertex="1">
          <mxGeometry x="60" width="100" height="30" as="geometry">
            <mxRectangle width="100" height="30" as="alternateBounds" />
          </mxGeometry>
        </mxCell>
        <mxCell id="ZLjGLMDozAA01at8S0_N-57" value="" style="shape=partialRectangle;collapsible=0;dropTarget=0;pointerEvents=0;fillColor=none;top=0;left=0;bottom=1;right=0;points=[[0,0.5],[1,0.5]];portConstraint=eastwest;" parent="ZLjGLMDozAA01at8S0_N-53" vertex="1">
          <mxGeometry y="60" width="160" height="30" as="geometry" />
        </mxCell>
        <mxCell id="ZLjGLMDozAA01at8S0_N-58" value="PK,FK2" style="shape=partialRectangle;connectable=0;fillColor=none;top=0;left=0;bottom=0;right=0;fontStyle=1;overflow=hidden;" parent="ZLjGLMDozAA01at8S0_N-57" vertex="1">
          <mxGeometry width="60" height="30" as="geometry">
            <mxRectangle width="60" height="30" as="alternateBounds" />
          </mxGeometry>
        </mxCell>
        <mxCell id="ZLjGLMDozAA01at8S0_N-59" value="RoleId" style="shape=partialRectangle;connectable=0;fillColor=none;top=0;left=0;bottom=0;right=0;align=left;spacingLeft=6;fontStyle=5;overflow=hidden;" parent="ZLjGLMDozAA01at8S0_N-57" vertex="1">
          <mxGeometry x="60" width="100" height="30" as="geometry">
            <mxRectangle width="100" height="30" as="alternateBounds" />
          </mxGeometry>
        </mxCell>
        <mxCell id="N9nqLkN6VIdVm4Pc-ygT-0" value="Courses" style="shape=table;startSize=30;container=1;collapsible=1;childLayout=tableLayout;fixedRows=1;rowLines=0;fontStyle=1;align=center;resizeLast=1;" parent="ZLjGLMDozAA01at8S0_N-1" vertex="1">
          <mxGeometry x="360" y="380" width="160" height="150" as="geometry" />
        </mxCell>
        <mxCell id="N9nqLkN6VIdVm4Pc-ygT-1" value="" style="shape=partialRectangle;collapsible=0;dropTarget=0;pointerEvents=0;fillColor=none;top=0;left=0;bottom=1;right=0;points=[[0,0.5],[1,0.5]];portConstraint=eastwest;" parent="N9nqLkN6VIdVm4Pc-ygT-0" vertex="1">
          <mxGeometry y="30" width="160" height="30" as="geometry" />
        </mxCell>
        <mxCell id="N9nqLkN6VIdVm4Pc-ygT-2" value="PK" style="shape=partialRectangle;connectable=0;fillColor=none;top=0;left=0;bottom=0;right=0;fontStyle=1;overflow=hidden;" parent="N9nqLkN6VIdVm4Pc-ygT-1" vertex="1">
          <mxGeometry width="30" height="30" as="geometry">
            <mxRectangle width="30" height="30" as="alternateBounds" />
          </mxGeometry>
        </mxCell>
        <mxCell id="N9nqLkN6VIdVm4Pc-ygT-3" value="ID" style="shape=partialRectangle;connectable=0;fillColor=none;top=0;left=0;bottom=0;right=0;align=left;spacingLeft=6;fontStyle=5;overflow=hidden;" parent="N9nqLkN6VIdVm4Pc-ygT-1" vertex="1">
          <mxGeometry x="30" width="130" height="30" as="geometry">
            <mxRectangle width="130" height="30" as="alternateBounds" />
          </mxGeometry>
        </mxCell>
        <mxCell id="N9nqLkN6VIdVm4Pc-ygT-4" value="" style="shape=partialRectangle;collapsible=0;dropTarget=0;pointerEvents=0;fillColor=none;top=0;left=0;bottom=0;right=0;points=[[0,0.5],[1,0.5]];portConstraint=eastwest;" parent="N9nqLkN6VIdVm4Pc-ygT-0" vertex="1">
          <mxGeometry y="60" width="160" height="30" as="geometry" />
        </mxCell>
        <mxCell id="N9nqLkN6VIdVm4Pc-ygT-5" value="" style="shape=partialRectangle;connectable=0;fillColor=none;top=0;left=0;bottom=0;right=0;editable=1;overflow=hidden;" parent="N9nqLkN6VIdVm4Pc-ygT-4" vertex="1">
          <mxGeometry width="30" height="30" as="geometry">
            <mxRectangle width="30" height="30" as="alternateBounds" />
          </mxGeometry>
        </mxCell>
        <mxCell id="N9nqLkN6VIdVm4Pc-ygT-6" value="Name" style="shape=partialRectangle;connectable=0;fillColor=none;top=0;left=0;bottom=0;right=0;align=left;spacingLeft=6;overflow=hidden;" parent="N9nqLkN6VIdVm4Pc-ygT-4" vertex="1">
          <mxGeometry x="30" width="130" height="30" as="geometry">
            <mxRectangle width="130" height="30" as="alternateBounds" />
          </mxGeometry>
        </mxCell>
        <mxCell id="N9nqLkN6VIdVm4Pc-ygT-7" value="" style="shape=partialRectangle;collapsible=0;dropTarget=0;pointerEvents=0;fillColor=none;top=0;left=0;bottom=0;right=0;points=[[0,0.5],[1,0.5]];portConstraint=eastwest;" parent="N9nqLkN6VIdVm4Pc-ygT-0" vertex="1">
          <mxGeometry y="90" width="160" height="30" as="geometry" />
        </mxCell>
        <mxCell id="N9nqLkN6VIdVm4Pc-ygT-8" value="FK" style="shape=partialRectangle;connectable=0;fillColor=none;top=0;left=0;bottom=0;right=0;editable=1;overflow=hidden;fontStyle=5" parent="N9nqLkN6VIdVm4Pc-ygT-7" vertex="1">
          <mxGeometry width="30" height="30" as="geometry">
            <mxRectangle width="30" height="30" as="alternateBounds" />
          </mxGeometry>
        </mxCell>
        <mxCell id="N9nqLkN6VIdVm4Pc-ygT-9" value="CategoryId" style="shape=partialRectangle;connectable=0;fillColor=none;top=0;left=0;bottom=0;right=0;align=left;spacingLeft=6;overflow=hidden;fontStyle=5" parent="N9nqLkN6VIdVm4Pc-ygT-7" vertex="1">
          <mxGeometry x="30" width="130" height="30" as="geometry">
            <mxRectangle width="130" height="30" as="alternateBounds" />
          </mxGeometry>
        </mxCell>
        <mxCell id="N9nqLkN6VIdVm4Pc-ygT-10" value="" style="shape=partialRectangle;collapsible=0;dropTarget=0;pointerEvents=0;fillColor=none;top=0;left=0;bottom=0;right=0;points=[[0,0.5],[1,0.5]];portConstraint=eastwest;" parent="N9nqLkN6VIdVm4Pc-ygT-0" vertex="1">
          <mxGeometry y="120" width="160" height="30" as="geometry" />
        </mxCell>
        <mxCell id="N9nqLkN6VIdVm4Pc-ygT-11" value="" style="shape=partialRectangle;connectable=0;fillColor=none;top=0;left=0;bottom=0;right=0;editable=1;overflow=hidden;" parent="N9nqLkN6VIdVm4Pc-ygT-10" vertex="1">
          <mxGeometry width="30" height="30" as="geometry">
            <mxRectangle width="30" height="30" as="alternateBounds" />
          </mxGeometry>
        </mxCell>
        <mxCell id="N9nqLkN6VIdVm4Pc-ygT-12" value="Description" style="shape=partialRectangle;connectable=0;fillColor=none;top=0;left=0;bottom=0;right=0;align=left;spacingLeft=6;overflow=hidden;" parent="N9nqLkN6VIdVm4Pc-ygT-10" vertex="1">
          <mxGeometry x="30" width="130" height="30" as="geometry">
            <mxRectangle width="130" height="30" as="alternateBounds" />
          </mxGeometry>
        </mxCell>
        <mxCell id="N9nqLkN6VIdVm4Pc-ygT-13" value="CourseTrainees" style="shape=table;startSize=30;container=1;collapsible=1;childLayout=tableLayout;fixedRows=1;rowLines=0;fontStyle=1;align=center;resizeLast=1;" parent="ZLjGLMDozAA01at8S0_N-1" vertex="1">
          <mxGeometry x="120" y="250" width="160" height="90" as="geometry" />
        </mxCell>
        <mxCell id="N9nqLkN6VIdVm4Pc-ygT-14" value="" style="shape=partialRectangle;collapsible=0;dropTarget=0;pointerEvents=0;fillColor=none;top=0;left=0;bottom=0;right=0;points=[[0,0.5],[1,0.5]];portConstraint=eastwest;" parent="N9nqLkN6VIdVm4Pc-ygT-13" vertex="1">
          <mxGeometry y="30" width="160" height="30" as="geometry" />
        </mxCell>
        <mxCell id="N9nqLkN6VIdVm4Pc-ygT-15" value="PK,FK1" style="shape=partialRectangle;connectable=0;fillColor=none;top=0;left=0;bottom=0;right=0;fontStyle=1;overflow=hidden;" parent="N9nqLkN6VIdVm4Pc-ygT-14" vertex="1">
          <mxGeometry width="60" height="30" as="geometry">
            <mxRectangle width="60" height="30" as="alternateBounds" />
          </mxGeometry>
        </mxCell>
        <mxCell id="N9nqLkN6VIdVm4Pc-ygT-16" value="TraineeUserId" style="shape=partialRectangle;connectable=0;fillColor=none;top=0;left=0;bottom=0;right=0;align=left;spacingLeft=6;fontStyle=5;overflow=hidden;" parent="N9nqLkN6VIdVm4Pc-ygT-14" vertex="1">
          <mxGeometry x="60" width="100" height="30" as="geometry">
            <mxRectangle width="100" height="30" as="alternateBounds" />
          </mxGeometry>
        </mxCell>
        <mxCell id="N9nqLkN6VIdVm4Pc-ygT-17" value="" style="shape=partialRectangle;collapsible=0;dropTarget=0;pointerEvents=0;fillColor=none;top=0;left=0;bottom=1;right=0;points=[[0,0.5],[1,0.5]];portConstraint=eastwest;" parent="N9nqLkN6VIdVm4Pc-ygT-13" vertex="1">
          <mxGeometry y="60" width="160" height="30" as="geometry" />
        </mxCell>
        <mxCell id="N9nqLkN6VIdVm4Pc-ygT-18" value="PK,FK2" style="shape=partialRectangle;connectable=0;fillColor=none;top=0;left=0;bottom=0;right=0;fontStyle=1;overflow=hidden;" parent="N9nqLkN6VIdVm4Pc-ygT-17" vertex="1">
          <mxGeometry width="60" height="30" as="geometry">
            <mxRectangle width="60" height="30" as="alternateBounds" />
          </mxGeometry>
        </mxCell>
        <mxCell id="N9nqLkN6VIdVm4Pc-ygT-19" value="CourseId" style="shape=partialRectangle;connectable=0;fillColor=none;top=0;left=0;bottom=0;right=0;align=left;spacingLeft=6;fontStyle=5;overflow=hidden;" parent="N9nqLkN6VIdVm4Pc-ygT-17" vertex="1">
          <mxGeometry x="60" width="100" height="30" as="geometry">
            <mxRectangle width="100" height="30" as="alternateBounds" />
          </mxGeometry>
        </mxCell>
        <mxCell id="N9nqLkN6VIdVm4Pc-ygT-39" value="CourseCategories" style="shape=table;startSize=30;container=1;collapsible=1;childLayout=tableLayout;fixedRows=1;rowLines=0;fontStyle=1;align=center;resizeLast=1;" parent="ZLjGLMDozAA01at8S0_N-1" vertex="1">
          <mxGeometry x="120" y="410" width="160" height="120" as="geometry" />
        </mxCell>
        <mxCell id="N9nqLkN6VIdVm4Pc-ygT-40" value="" style="shape=partialRectangle;collapsible=0;dropTarget=0;pointerEvents=0;fillColor=none;top=0;left=0;bottom=1;right=0;points=[[0,0.5],[1,0.5]];portConstraint=eastwest;" parent="N9nqLkN6VIdVm4Pc-ygT-39" vertex="1">
          <mxGeometry y="30" width="160" height="30" as="geometry" />
        </mxCell>
        <mxCell id="N9nqLkN6VIdVm4Pc-ygT-41" value="PK" style="shape=partialRectangle;connectable=0;fillColor=none;top=0;left=0;bottom=0;right=0;fontStyle=1;overflow=hidden;" parent="N9nqLkN6VIdVm4Pc-ygT-40" vertex="1">
          <mxGeometry width="30" height="30" as="geometry">
            <mxRectangle width="30" height="30" as="alternateBounds" />
          </mxGeometry>
        </mxCell>
        <mxCell id="N9nqLkN6VIdVm4Pc-ygT-42" value="ID" style="shape=partialRectangle;connectable=0;fillColor=none;top=0;left=0;bottom=0;right=0;align=left;spacingLeft=6;fontStyle=5;overflow=hidden;" parent="N9nqLkN6VIdVm4Pc-ygT-40" vertex="1">
          <mxGeometry x="30" width="130" height="30" as="geometry">
            <mxRectangle width="130" height="30" as="alternateBounds" />
          </mxGeometry>
        </mxCell>
        <mxCell id="N9nqLkN6VIdVm4Pc-ygT-43" value="" style="shape=partialRectangle;collapsible=0;dropTarget=0;pointerEvents=0;fillColor=none;top=0;left=0;bottom=0;right=0;points=[[0,0.5],[1,0.5]];portConstraint=eastwest;" parent="N9nqLkN6VIdVm4Pc-ygT-39" vertex="1">
          <mxGeometry y="60" width="160" height="30" as="geometry" />
        </mxCell>
        <mxCell id="N9nqLkN6VIdVm4Pc-ygT-44" value="" style="shape=partialRectangle;connectable=0;fillColor=none;top=0;left=0;bottom=0;right=0;editable=1;overflow=hidden;" parent="N9nqLkN6VIdVm4Pc-ygT-43" vertex="1">
          <mxGeometry width="30" height="30" as="geometry">
            <mxRectangle width="30" height="30" as="alternateBounds" />
          </mxGeometry>
        </mxCell>
        <mxCell id="N9nqLkN6VIdVm4Pc-ygT-45" value="Name" style="shape=partialRectangle;connectable=0;fillColor=none;top=0;left=0;bottom=0;right=0;align=left;spacingLeft=6;overflow=hidden;" parent="N9nqLkN6VIdVm4Pc-ygT-43" vertex="1">
          <mxGeometry x="30" width="130" height="30" as="geometry">
            <mxRectangle width="130" height="30" as="alternateBounds" />
          </mxGeometry>
        </mxCell>
        <mxCell id="N9nqLkN6VIdVm4Pc-ygT-49" value="" style="shape=partialRectangle;collapsible=0;dropTarget=0;pointerEvents=0;fillColor=none;top=0;left=0;bottom=0;right=0;points=[[0,0.5],[1,0.5]];portConstraint=eastwest;" parent="N9nqLkN6VIdVm4Pc-ygT-39" vertex="1">
          <mxGeometry y="90" width="160" height="30" as="geometry" />
        </mxCell>
        <mxCell id="N9nqLkN6VIdVm4Pc-ygT-50" value="" style="shape=partialRectangle;connectable=0;fillColor=none;top=0;left=0;bottom=0;right=0;editable=1;overflow=hidden;" parent="N9nqLkN6VIdVm4Pc-ygT-49" vertex="1">
          <mxGeometry width="30" height="30" as="geometry">
            <mxRectangle width="30" height="30" as="alternateBounds" />
          </mxGeometry>
        </mxCell>
        <mxCell id="N9nqLkN6VIdVm4Pc-ygT-51" value="Description" style="shape=partialRectangle;connectable=0;fillColor=none;top=0;left=0;bottom=0;right=0;align=left;spacingLeft=6;overflow=hidden;" parent="N9nqLkN6VIdVm4Pc-ygT-49" vertex="1">
          <mxGeometry x="30" width="130" height="30" as="geometry">
            <mxRectangle width="130" height="30" as="alternateBounds" />
          </mxGeometry>
        </mxCell>
        <mxCell id="XGphwFju55MRbVTztd3u-3" value="TraineeProfiles" style="shape=table;startSize=30;container=1;collapsible=1;childLayout=tableLayout;fixedRows=1;rowLines=0;fontStyle=1;align=center;resizeLast=1;" parent="ZLjGLMDozAA01at8S0_N-1" vertex="1">
          <mxGeometry x="120" y="80" width="160" height="120" as="geometry" />
        </mxCell>
        <mxCell id="XGphwFju55MRbVTztd3u-4" value="" style="shape=partialRectangle;collapsible=0;dropTarget=0;pointerEvents=0;fillColor=none;top=0;left=0;bottom=1;right=0;points=[[0,0.5],[1,0.5]];portConstraint=eastwest;" parent="XGphwFju55MRbVTztd3u-3" vertex="1">
          <mxGeometry y="30" width="160" height="30" as="geometry" />
        </mxCell>
        <mxCell id="XGphwFju55MRbVTztd3u-5" value="PK" style="shape=partialRectangle;connectable=0;fillColor=none;top=0;left=0;bottom=0;right=0;fontStyle=1;overflow=hidden;" parent="XGphwFju55MRbVTztd3u-4" vertex="1">
          <mxGeometry width="30" height="30" as="geometry">
            <mxRectangle width="30" height="30" as="alternateBounds" />
          </mxGeometry>
        </mxCell>
        <mxCell id="XGphwFju55MRbVTztd3u-6" value="TraineeUserId" style="shape=partialRectangle;connectable=0;fillColor=none;top=0;left=0;bottom=0;right=0;align=left;spacingLeft=6;fontStyle=5;overflow=hidden;" parent="XGphwFju55MRbVTztd3u-4" vertex="1">
          <mxGeometry x="30" width="130" height="30" as="geometry">
            <mxRectangle width="130" height="30" as="alternateBounds" />
          </mxGeometry>
        </mxCell>
        <mxCell id="XGphwFju55MRbVTztd3u-7" value="" style="shape=partialRectangle;collapsible=0;dropTarget=0;pointerEvents=0;fillColor=none;top=0;left=0;bottom=0;right=0;points=[[0,0.5],[1,0.5]];portConstraint=eastwest;" parent="XGphwFju55MRbVTztd3u-3" vertex="1">
          <mxGeometry y="60" width="160" height="30" as="geometry" />
        </mxCell>
        <mxCell id="XGphwFju55MRbVTztd3u-8" value="" style="shape=partialRectangle;connectable=0;fillColor=none;top=0;left=0;bottom=0;right=0;editable=1;overflow=hidden;" parent="XGphwFju55MRbVTztd3u-7" vertex="1">
          <mxGeometry width="30" height="30" as="geometry">
            <mxRectangle width="30" height="30" as="alternateBounds" />
          </mxGeometry>
        </mxCell>
        <mxCell id="XGphwFju55MRbVTztd3u-9" value="BirthDate" style="shape=partialRectangle;connectable=0;fillColor=none;top=0;left=0;bottom=0;right=0;align=left;spacingLeft=6;overflow=hidden;" parent="XGphwFju55MRbVTztd3u-7" vertex="1">
          <mxGeometry x="30" width="130" height="30" as="geometry">
            <mxRectangle width="130" height="30" as="alternateBounds" />
          </mxGeometry>
        </mxCell>
        <mxCell id="XGphwFju55MRbVTztd3u-10" value="" style="shape=partialRectangle;collapsible=0;dropTarget=0;pointerEvents=0;fillColor=none;top=0;left=0;bottom=0;right=0;points=[[0,0.5],[1,0.5]];portConstraint=eastwest;" parent="XGphwFju55MRbVTztd3u-3" vertex="1">
          <mxGeometry y="90" width="160" height="30" as="geometry" />
        </mxCell>
        <mxCell id="XGphwFju55MRbVTztd3u-11" value="" style="shape=partialRectangle;connectable=0;fillColor=none;top=0;left=0;bottom=0;right=0;editable=1;overflow=hidden;" parent="XGphwFju55MRbVTztd3u-10" vertex="1">
          <mxGeometry width="30" height="30" as="geometry">
            <mxRectangle width="30" height="30" as="alternateBounds" />
          </mxGeometry>
        </mxCell>
        <mxCell id="XGphwFju55MRbVTztd3u-12" value="Education" style="shape=partialRectangle;connectable=0;fillColor=none;top=0;left=0;bottom=0;right=0;align=left;spacingLeft=6;overflow=hidden;" parent="XGphwFju55MRbVTztd3u-10" vertex="1">
          <mxGeometry x="30" width="130" height="30" as="geometry">
            <mxRectangle width="130" height="30" as="alternateBounds" />
          </mxGeometry>
        </mxCell>
        <mxCell id="XGphwFju55MRbVTztd3u-16" value="TrainerProfiles" style="shape=table;startSize=30;container=1;collapsible=1;childLayout=tableLayout;fixedRows=1;rowLines=0;fontStyle=1;align=center;resizeLast=1;" parent="ZLjGLMDozAA01at8S0_N-1" vertex="1">
          <mxGeometry x="600" y="320" width="160" height="90" as="geometry" />
        </mxCell>
        <mxCell id="XGphwFju55MRbVTztd3u-17" value="" style="shape=partialRectangle;collapsible=0;dropTarget=0;pointerEvents=0;fillColor=none;top=0;left=0;bottom=1;right=0;points=[[0,0.5],[1,0.5]];portConstraint=eastwest;" parent="XGphwFju55MRbVTztd3u-16" vertex="1">
          <mxGeometry y="30" width="160" height="30" as="geometry" />
        </mxCell>
        <mxCell id="XGphwFju55MRbVTztd3u-18" value="PK" style="shape=partialRectangle;connectable=0;fillColor=none;top=0;left=0;bottom=0;right=0;fontStyle=1;overflow=hidden;" parent="XGphwFju55MRbVTztd3u-17" vertex="1">
          <mxGeometry width="30" height="30" as="geometry">
            <mxRectangle width="30" height="30" as="alternateBounds" />
          </mxGeometry>
        </mxCell>
        <mxCell id="XGphwFju55MRbVTztd3u-19" value="TrainerUserId" style="shape=partialRectangle;connectable=0;fillColor=none;top=0;left=0;bottom=0;right=0;align=left;spacingLeft=6;fontStyle=5;overflow=hidden;" parent="XGphwFju55MRbVTztd3u-17" vertex="1">
          <mxGeometry x="30" width="130" height="30" as="geometry">
            <mxRectangle width="130" height="30" as="alternateBounds" />
          </mxGeometry>
        </mxCell>
        <mxCell id="XGphwFju55MRbVTztd3u-20" value="" style="shape=partialRectangle;collapsible=0;dropTarget=0;pointerEvents=0;fillColor=none;top=0;left=0;bottom=0;right=0;points=[[0,0.5],[1,0.5]];portConstraint=eastwest;" parent="XGphwFju55MRbVTztd3u-16" vertex="1">
          <mxGeometry y="60" width="160" height="30" as="geometry" />
        </mxCell>
        <mxCell id="XGphwFju55MRbVTztd3u-21" value="" style="shape=partialRectangle;connectable=0;fillColor=none;top=0;left=0;bottom=0;right=0;editable=1;overflow=hidden;" parent="XGphwFju55MRbVTztd3u-20" vertex="1">
          <mxGeometry width="30" height="30" as="geometry">
            <mxRectangle width="30" height="30" as="alternateBounds" />
          </mxGeometry>
        </mxCell>
        <mxCell id="XGphwFju55MRbVTztd3u-22" value="Specialty" style="shape=partialRectangle;connectable=0;fillColor=none;top=0;left=0;bottom=0;right=0;align=left;spacingLeft=6;overflow=hidden;" parent="XGphwFju55MRbVTztd3u-20" vertex="1">
          <mxGeometry x="30" width="130" height="30" as="geometry">
            <mxRectangle width="130" height="30" as="alternateBounds" />
          </mxGeometry>
        </mxCell>
        <mxCell id="XGphwFju55MRbVTztd3u-26" value="CourseTrainers" style="shape=table;startSize=30;container=1;collapsible=1;childLayout=tableLayout;fixedRows=1;rowLines=0;fontStyle=1;align=center;resizeLast=1;" parent="ZLjGLMDozAA01at8S0_N-1" vertex="1">
          <mxGeometry x="600" y="440" width="160" height="90" as="geometry" />
        </mxCell>
        <mxCell id="XGphwFju55MRbVTztd3u-27" value="" style="shape=partialRectangle;collapsible=0;dropTarget=0;pointerEvents=0;fillColor=none;top=0;left=0;bottom=0;right=0;points=[[0,0.5],[1,0.5]];portConstraint=eastwest;" parent="XGphwFju55MRbVTztd3u-26" vertex="1">
          <mxGeometry y="30" width="160" height="30" as="geometry" />
        </mxCell>
        <mxCell id="XGphwFju55MRbVTztd3u-28" value="PK,FK1" style="shape=partialRectangle;connectable=0;fillColor=none;top=0;left=0;bottom=0;right=0;fontStyle=1;overflow=hidden;" parent="XGphwFju55MRbVTztd3u-27" vertex="1">
          <mxGeometry width="60" height="30" as="geometry">
            <mxRectangle width="60" height="30" as="alternateBounds" />
          </mxGeometry>
        </mxCell>
        <mxCell id="XGphwFju55MRbVTztd3u-29" value="TrainerUserId" style="shape=partialRectangle;connectable=0;fillColor=none;top=0;left=0;bottom=0;right=0;align=left;spacingLeft=6;fontStyle=5;overflow=hidden;" parent="XGphwFju55MRbVTztd3u-27" vertex="1">
          <mxGeometry x="60" width="100" height="30" as="geometry">
            <mxRectangle width="100" height="30" as="alternateBounds" />
          </mxGeometry>
        </mxCell>
        <mxCell id="XGphwFju55MRbVTztd3u-30" value="" style="shape=partialRectangle;collapsible=0;dropTarget=0;pointerEvents=0;fillColor=none;top=0;left=0;bottom=1;right=0;points=[[0,0.5],[1,0.5]];portConstraint=eastwest;" parent="XGphwFju55MRbVTztd3u-26" vertex="1">
          <mxGeometry y="60" width="160" height="30" as="geometry" />
        </mxCell>
        <mxCell id="XGphwFju55MRbVTztd3u-31" value="PK,FK2" style="shape=partialRectangle;connectable=0;fillColor=none;top=0;left=0;bottom=0;right=0;fontStyle=1;overflow=hidden;" parent="XGphwFju55MRbVTztd3u-30" vertex="1">
          <mxGeometry width="60" height="30" as="geometry">
            <mxRectangle width="60" height="30" as="alternateBounds" />
          </mxGeometry>
        </mxCell>
        <mxCell id="XGphwFju55MRbVTztd3u-32" value="CourseId" style="shape=partialRectangle;connectable=0;fillColor=none;top=0;left=0;bottom=0;right=0;align=left;spacingLeft=6;fontStyle=5;overflow=hidden;" parent="XGphwFju55MRbVTztd3u-30" vertex="1">
          <mxGeometry x="60" width="100" height="30" as="geometry">
            <mxRectangle width="100" height="30" as="alternateBounds" />
          </mxGeometry>
        </mxCell>
        <mxCell id="XGphwFju55MRbVTztd3u-33" style="edgeStyle=orthogonalEdgeStyle;rounded=0;orthogonalLoop=1;jettySize=auto;html=1;entryX=0;entryY=0.5;entryDx=0;entryDy=0;exitX=0;exitY=0.5;exitDx=0;exitDy=0;endArrow=ERmany;endFill=0;startArrow=ERone;startFill=0;" parent="ZLjGLMDozAA01at8S0_N-1" source="XGphwFju55MRbVTztd3u-4" target="N9nqLkN6VIdVm4Pc-ygT-14" edge="1">
          <mxGeometry relative="1" as="geometry" />
        </mxCell>
        <mxCell id="XGphwFju55MRbVTztd3u-39" style="edgeStyle=orthogonalEdgeStyle;rounded=0;orthogonalLoop=1;jettySize=auto;html=1;entryX=1;entryY=0.5;entryDx=0;entryDy=0;endArrow=ERone;endFill=0;startArrow=ERone;startFill=0;" parent="ZLjGLMDozAA01at8S0_N-1" source="ZLjGLMDozAA01at8S0_N-3" target="XGphwFju55MRbVTztd3u-4" edge="1">
          <mxGeometry relative="1" as="geometry" />
        </mxCell>
        <mxCell id="XGphwFju55MRbVTztd3u-41" style="edgeStyle=orthogonalEdgeStyle;rounded=0;orthogonalLoop=1;jettySize=auto;html=1;endArrow=ERone;endFill=0;startArrow=ERone;startFill=0;exitX=1.003;exitY=-0.153;exitDx=0;exitDy=0;exitPerimeter=0;" parent="ZLjGLMDozAA01at8S0_N-1" source="ZLjGLMDozAA01at8S0_N-6" target="XGphwFju55MRbVTztd3u-17" edge="1">
          <mxGeometry relative="1" as="geometry">
            <mxPoint x="370" y="135" as="sourcePoint" />
            <mxPoint x="290" y="135" as="targetPoint" />
          </mxGeometry>
        </mxCell>
        <mxCell id="XGphwFju55MRbVTztd3u-42" style="edgeStyle=orthogonalEdgeStyle;rounded=0;orthogonalLoop=1;jettySize=auto;html=1;startArrow=ERone;startFill=0;endArrow=ERmany;endFill=0;exitX=1.008;exitY=0.18;exitDx=0;exitDy=0;exitPerimeter=0;" parent="ZLjGLMDozAA01at8S0_N-1" source="ZLjGLMDozAA01at8S0_N-3" target="ZLjGLMDozAA01at8S0_N-54" edge="1">
          <mxGeometry relative="1" as="geometry" />
        </mxCell>
        <mxCell id="XGphwFju55MRbVTztd3u-43" style="edgeStyle=orthogonalEdgeStyle;rounded=0;orthogonalLoop=1;jettySize=auto;html=1;startArrow=ERone;startFill=0;endArrow=ERmany;endFill=0;entryX=1;entryY=0.5;entryDx=0;entryDy=0;" parent="ZLjGLMDozAA01at8S0_N-1" source="N9nqLkN6VIdVm4Pc-ygT-1" target="N9nqLkN6VIdVm4Pc-ygT-17" edge="1">
          <mxGeometry relative="1" as="geometry">
            <mxPoint x="136.5" y="650" as="sourcePoint" />
            <mxPoint x="263.5" y="360" as="targetPoint" />
          </mxGeometry>
        </mxCell>
        <mxCell id="XGphwFju55MRbVTztd3u-44" style="edgeStyle=orthogonalEdgeStyle;rounded=0;orthogonalLoop=1;jettySize=auto;html=1;startArrow=ERone;startFill=0;endArrow=ERmany;endFill=0;" parent="ZLjGLMDozAA01at8S0_N-1" source="N9nqLkN6VIdVm4Pc-ygT-1" target="XGphwFju55MRbVTztd3u-30" edge="1">
          <mxGeometry relative="1" as="geometry">
            <mxPoint x="370" y="415" as="sourcePoint" />
            <mxPoint x="290" y="335" as="targetPoint" />
          </mxGeometry>
        </mxCell>
        <mxCell id="XGphwFju55MRbVTztd3u-45" style="edgeStyle=orthogonalEdgeStyle;rounded=0;orthogonalLoop=1;jettySize=auto;html=1;startArrow=ERone;startFill=0;endArrow=ERmany;endFill=0;" parent="ZLjGLMDozAA01at8S0_N-1" source="N9nqLkN6VIdVm4Pc-ygT-40" target="N9nqLkN6VIdVm4Pc-ygT-7" edge="1">
          <mxGeometry relative="1" as="geometry" />
        </mxCell>
        <mxCell id="XGphwFju55MRbVTztd3u-49" style="edgeStyle=orthogonalEdgeStyle;rounded=0;orthogonalLoop=1;jettySize=auto;html=1;startArrow=ERone;startFill=0;endArrow=ERmany;endFill=0;exitX=1;exitY=0.5;exitDx=0;exitDy=0;" parent="ZLjGLMDozAA01at8S0_N-1" source="ZLjGLMDozAA01at8S0_N-22" target="ZLjGLMDozAA01at8S0_N-57" edge="1">
          <mxGeometry relative="1" as="geometry">
            <mxPoint x="530" y="135" as="sourcePoint" />
            <mxPoint x="610" y="135" as="targetPoint" />
          </mxGeometry>
        </mxCell>
        <mxCell id="XGphwFju55MRbVTztd3u-50" style="edgeStyle=orthogonalEdgeStyle;rounded=0;orthogonalLoop=1;jettySize=auto;html=1;startArrow=ERone;startFill=0;endArrow=ERmany;endFill=0;exitX=1;exitY=0.5;exitDx=0;exitDy=0;" parent="ZLjGLMDozAA01at8S0_N-1" source="XGphwFju55MRbVTztd3u-17" target="XGphwFju55MRbVTztd3u-27" edge="1">
          <mxGeometry relative="1" as="geometry">
            <mxPoint x="770" y="255" as="sourcePoint" />
            <mxPoint x="770" y="165" as="targetPoint" />
          </mxGeometry>
        </mxCell>
      </root>
    </mxGraphModel>
  </diagram>
  <diagram id="5CgLaEpDm9JCMZHlKC3x" name="Use case diagram">
    <mxGraphModel dx="1038" dy="656" grid="1" gridSize="10" guides="1" tooltips="1" connect="1" arrows="1" fold="1" page="1" pageScale="1" pageWidth="827" pageHeight="1169" math="0" shadow="0">
      <root>
        <mxCell id="0" />
        <mxCell id="1" parent="0" />
        <mxCell id="Qy6W5IoDHR-1Pqb8D0mE-92" style="edgeStyle=none;rounded=0;orthogonalLoop=1;jettySize=auto;html=1;entryX=0;entryY=0.5;entryDx=0;entryDy=0;endArrow=none;endFill=0;" parent="1" source="GxRgigIWufkrvGBZ6i5c-4" target="Qy6W5IoDHR-1Pqb8D0mE-29" edge="1">
          <mxGeometry relative="1" as="geometry" />
        </mxCell>
        <mxCell id="Qy6W5IoDHR-1Pqb8D0mE-93" style="edgeStyle=none;rounded=0;orthogonalLoop=1;jettySize=auto;html=1;entryX=0;entryY=0.5;entryDx=0;entryDy=0;endArrow=none;endFill=0;" parent="1" source="GxRgigIWufkrvGBZ6i5c-4" target="GxRgigIWufkrvGBZ6i5c-12" edge="1">
          <mxGeometry relative="1" as="geometry" />
        </mxCell>
        <mxCell id="GxRgigIWufkrvGBZ6i5c-4" value="Admin" style="shape=umlActor;verticalLabelPosition=bottom;verticalAlign=top;html=1;" parent="1" vertex="1">
          <mxGeometry x="20" y="155" width="30" height="60" as="geometry" />
        </mxCell>
        <mxCell id="Qy6W5IoDHR-1Pqb8D0mE-84" style="edgeStyle=none;rounded=0;orthogonalLoop=1;jettySize=auto;html=1;endArrow=none;endFill=0;entryX=1;entryY=0.5;entryDx=0;entryDy=0;entryPerimeter=0;exitX=0.5;exitY=0.5;exitDx=0;exitDy=0;exitPerimeter=0;" parent="1" source="GxRgigIWufkrvGBZ6i5c-5" target="Ier1LVSKaCVLYA_BxDD0-4" edge="1">
          <mxGeometry relative="1" as="geometry">
            <mxPoint x="1180" y="855" as="targetPoint" />
            <mxPoint x="970" y="519.2857142857142" as="sourcePoint" />
          </mxGeometry>
        </mxCell>
        <mxCell id="Qy6W5IoDHR-1Pqb8D0mE-103" style="edgeStyle=none;rounded=0;orthogonalLoop=1;jettySize=auto;html=1;endArrow=none;endFill=0;entryX=1;entryY=0.5;entryDx=0;entryDy=0;" parent="1" source="GxRgigIWufkrvGBZ6i5c-5" target="Qy6W5IoDHR-1Pqb8D0mE-79" edge="1">
          <mxGeometry relative="1" as="geometry" />
        </mxCell>
        <mxCell id="WC6QpQHkVPgM9P2j1Ifc-3" style="edgeStyle=none;rounded=0;orthogonalLoop=1;jettySize=auto;html=1;endArrow=none;endFill=0;" parent="1" source="GxRgigIWufkrvGBZ6i5c-5" target="Qy6W5IoDHR-1Pqb8D0mE-30" edge="1">
          <mxGeometry relative="1" as="geometry" />
        </mxCell>
        <mxCell id="WC6QpQHkVPgM9P2j1Ifc-17" style="edgeStyle=none;rounded=0;orthogonalLoop=1;jettySize=auto;html=1;endArrow=none;endFill=0;" parent="1" source="GxRgigIWufkrvGBZ6i5c-5" target="Ier1LVSKaCVLYA_BxDD0-6" edge="1">
          <mxGeometry relative="1" as="geometry" />
        </mxCell>
        <mxCell id="WC6QpQHkVPgM9P2j1Ifc-18" style="edgeStyle=none;rounded=0;orthogonalLoop=1;jettySize=auto;html=1;endArrow=none;endFill=0;" parent="1" source="GxRgigIWufkrvGBZ6i5c-5" target="Ier1LVSKaCVLYA_BxDD0-1" edge="1">
          <mxGeometry relative="1" as="geometry" />
        </mxCell>
        <mxCell id="GxRgigIWufkrvGBZ6i5c-5" value="Staff" style="shape=umlActor;verticalLabelPosition=bottom;verticalAlign=top;html=1;" parent="1" vertex="1">
          <mxGeometry x="760" y="500" width="30" height="60" as="geometry" />
        </mxCell>
        <mxCell id="Qy6W5IoDHR-1Pqb8D0mE-81" style="edgeStyle=none;rounded=0;orthogonalLoop=1;jettySize=auto;html=1;endArrow=none;endFill=0;entryX=0;entryY=0.5;entryDx=0;entryDy=0;" parent="1" source="GxRgigIWufkrvGBZ6i5c-6" target="Qy6W5IoDHR-1Pqb8D0mE-15" edge="1">
          <mxGeometry relative="1" as="geometry" />
        </mxCell>
        <mxCell id="Qy6W5IoDHR-1Pqb8D0mE-82" style="edgeStyle=none;rounded=0;orthogonalLoop=1;jettySize=auto;html=1;endArrow=none;endFill=0;entryX=0;entryY=0.5;entryDx=0;entryDy=0;" parent="1" source="GxRgigIWufkrvGBZ6i5c-6" target="Qy6W5IoDHR-1Pqb8D0mE-1" edge="1">
          <mxGeometry relative="1" as="geometry" />
        </mxCell>
        <mxCell id="Qy6W5IoDHR-1Pqb8D0mE-83" style="edgeStyle=none;rounded=0;orthogonalLoop=1;jettySize=auto;html=1;entryX=0;entryY=0.5;entryDx=0;entryDy=0;endArrow=none;endFill=0;" parent="1" source="GxRgigIWufkrvGBZ6i5c-6" target="Ier1LVSKaCVLYA_BxDD0-3" edge="1">
          <mxGeometry relative="1" as="geometry" />
        </mxCell>
        <mxCell id="WC6QpQHkVPgM9P2j1Ifc-4" style="edgeStyle=none;rounded=0;orthogonalLoop=1;jettySize=auto;html=1;endArrow=none;endFill=0;" parent="1" source="GxRgigIWufkrvGBZ6i5c-6" target="Qy6W5IoDHR-1Pqb8D0mE-30" edge="1">
          <mxGeometry relative="1" as="geometry" />
        </mxCell>
        <mxCell id="GxRgigIWufkrvGBZ6i5c-6" value="Trainer" style="shape=umlActor;verticalLabelPosition=bottom;verticalAlign=top;html=1;" parent="1" vertex="1">
          <mxGeometry x="20" y="505" width="30" height="60" as="geometry" />
        </mxCell>
        <mxCell id="Qy6W5IoDHR-1Pqb8D0mE-58" style="edgeStyle=none;rounded=0;orthogonalLoop=1;jettySize=auto;html=1;endArrow=none;endFill=0;" parent="1" source="GxRgigIWufkrvGBZ6i5c-7" target="Qy6W5IoDHR-1Pqb8D0mE-56" edge="1">
          <mxGeometry relative="1" as="geometry" />
        </mxCell>
        <mxCell id="Qy6W5IoDHR-1Pqb8D0mE-80" style="edgeStyle=none;rounded=0;orthogonalLoop=1;jettySize=auto;html=1;endArrow=none;endFill=0;" parent="1" source="GxRgigIWufkrvGBZ6i5c-7" target="Qy6W5IoDHR-1Pqb8D0mE-55" edge="1">
          <mxGeometry relative="1" as="geometry" />
        </mxCell>
        <mxCell id="WC6QpQHkVPgM9P2j1Ifc-2" style="rounded=0;orthogonalLoop=1;jettySize=auto;html=1;endArrow=none;endFill=0;" parent="1" source="GxRgigIWufkrvGBZ6i5c-7" target="Qy6W5IoDHR-1Pqb8D0mE-54" edge="1">
          <mxGeometry relative="1" as="geometry" />
        </mxCell>
        <mxCell id="GxRgigIWufkrvGBZ6i5c-7" value="Trainee" style="shape=umlActor;verticalLabelPosition=bottom;verticalAlign=top;html=1;" parent="1" vertex="1">
          <mxGeometry x="20" y="890" width="30" height="60" as="geometry" />
        </mxCell>
        <mxCell id="GxRgigIWufkrvGBZ6i5c-12" value="Manage accounts of trainers and staffs&amp;nbsp;" style="ellipse;whiteSpace=wrap;html=1;" parent="1" vertex="1">
          <mxGeometry x="120" y="150" width="140" height="70" as="geometry" />
        </mxCell>
        <mxCell id="Ier1LVSKaCVLYA_BxDD0-1" value="Search for trainees and trainers assigned to a course" style="ellipse;whiteSpace=wrap;html=1;" parent="1" vertex="1">
          <mxGeometry x="590" y="220" width="140" height="70" as="geometry" />
        </mxCell>
        <mxCell id="Ier1LVSKaCVLYA_BxDD0-3" value="View courses assigned to" style="ellipse;whiteSpace=wrap;html=1;" parent="1" vertex="1">
          <mxGeometry x="120" y="650" width="140" height="70" as="geometry" />
        </mxCell>
        <mxCell id="Ier1LVSKaCVLYA_BxDD0-4" value="Manage Courses" style="ellipse;whiteSpace=wrap;html=1;" parent="1" vertex="1">
          <mxGeometry x="450" y="320" width="140" height="70" as="geometry" />
        </mxCell>
        <mxCell id="Ier1LVSKaCVLYA_BxDD0-6" value="Assign trainer and trainee to a specific course" style="ellipse;whiteSpace=wrap;html=1;" parent="1" vertex="1">
          <mxGeometry x="515" y="440" width="140" height="70" as="geometry" />
        </mxCell>
        <mxCell id="Qy6W5IoDHR-1Pqb8D0mE-1" value="View trainees of courses assigned to" style="ellipse;whiteSpace=wrap;html=1;" parent="1" vertex="1">
          <mxGeometry x="120" y="550" width="140" height="70" as="geometry" />
        </mxCell>
        <mxCell id="Qy6W5IoDHR-1Pqb8D0mE-15" value="Update profile" style="ellipse;whiteSpace=wrap;html=1;" parent="1" vertex="1">
          <mxGeometry x="120" y="440" width="140" height="70" as="geometry" />
        </mxCell>
        <mxCell id="Qy6W5IoDHR-1Pqb8D0mE-29" value="Log in to the system" style="ellipse;whiteSpace=wrap;html=1;" parent="1" vertex="1">
          <mxGeometry x="120" y="20" width="140" height="70" as="geometry" />
        </mxCell>
        <mxCell id="Qy6W5IoDHR-1Pqb8D0mE-30" value="Log in to the system" style="ellipse;whiteSpace=wrap;html=1;" parent="1" vertex="1">
          <mxGeometry x="320" y="495" width="120" height="70" as="geometry" />
        </mxCell>
        <mxCell id="Qy6W5IoDHR-1Pqb8D0mE-46" value="include" style="edgeStyle=none;rounded=0;orthogonalLoop=1;jettySize=auto;html=1;endArrow=open;endFill=0;dashed=1;" parent="1" source="Qy6W5IoDHR-1Pqb8D0mE-1" target="Qy6W5IoDHR-1Pqb8D0mE-30" edge="1">
          <mxGeometry relative="1" as="geometry">
            <mxPoint x="380.00303829333836" y="589.9975051097936" as="sourcePoint" />
            <mxPoint x="447.9126526552128" y="675.023315819016" as="targetPoint" />
          </mxGeometry>
        </mxCell>
        <mxCell id="Qy6W5IoDHR-1Pqb8D0mE-48" value="include" style="edgeStyle=none;rounded=0;orthogonalLoop=1;jettySize=auto;html=1;endArrow=open;endFill=0;dashed=1;" parent="1" source="Qy6W5IoDHR-1Pqb8D0mE-15" target="Qy6W5IoDHR-1Pqb8D0mE-30" edge="1">
          <mxGeometry relative="1" as="geometry">
            <mxPoint x="277.11604059755905" y="604.1152616470199" as="sourcePoint" />
            <mxPoint x="392.8011445185075" y="540.8469922874838" as="targetPoint" />
          </mxGeometry>
        </mxCell>
        <mxCell id="Qy6W5IoDHR-1Pqb8D0mE-49" value="include" style="edgeStyle=none;rounded=0;orthogonalLoop=1;jettySize=auto;html=1;endArrow=open;endFill=0;dashed=1;" parent="1" source="Ier1LVSKaCVLYA_BxDD0-3" target="Qy6W5IoDHR-1Pqb8D0mE-30" edge="1">
          <mxGeometry relative="1" as="geometry">
            <mxPoint x="277.11604059755905" y="604.1152616470199" as="sourcePoint" />
            <mxPoint x="392.8011445185075" y="540.8469922874838" as="targetPoint" />
          </mxGeometry>
        </mxCell>
        <mxCell id="Qy6W5IoDHR-1Pqb8D0mE-54" value="Log in to the system" style="ellipse;whiteSpace=wrap;html=1;" parent="1" vertex="1">
          <mxGeometry x="120" y="880" width="120" height="70" as="geometry" />
        </mxCell>
        <mxCell id="Qy6W5IoDHR-1Pqb8D0mE-55" value="View courses assigned to" style="ellipse;whiteSpace=wrap;html=1;" parent="1" vertex="1">
          <mxGeometry x="120" y="990" width="120" height="70" as="geometry" />
        </mxCell>
        <mxCell id="Qy6W5IoDHR-1Pqb8D0mE-56" value="View trainees of courses assigned to" style="ellipse;whiteSpace=wrap;html=1;" parent="1" vertex="1">
          <mxGeometry x="120" y="760" width="120" height="70" as="geometry" />
        </mxCell>
        <mxCell id="Qy6W5IoDHR-1Pqb8D0mE-60" value="include" style="edgeStyle=none;rounded=0;orthogonalLoop=1;jettySize=auto;html=1;endArrow=open;endFill=0;dashed=1;" parent="1" source="Qy6W5IoDHR-1Pqb8D0mE-56" target="Qy6W5IoDHR-1Pqb8D0mE-54" edge="1">
          <mxGeometry relative="1" as="geometry">
            <mxPoint x="190.00056863278684" y="869.3783897184035" as="sourcePoint" />
            <mxPoint x="304.7100966300057" y="840.6124758424985" as="targetPoint" />
          </mxGeometry>
        </mxCell>
        <mxCell id="Qy6W5IoDHR-1Pqb8D0mE-61" value="include" style="edgeStyle=none;rounded=0;orthogonalLoop=1;jettySize=auto;html=1;endArrow=open;endFill=0;dashed=1;" parent="1" source="Qy6W5IoDHR-1Pqb8D0mE-55" target="Qy6W5IoDHR-1Pqb8D0mE-54" edge="1">
          <mxGeometry relative="1" as="geometry">
            <mxPoint x="159.35512518086182" y="933.3869400372059" as="sourcePoint" />
            <mxPoint x="270.0046153846157" y="956.6084615384616" as="targetPoint" />
          </mxGeometry>
        </mxCell>
        <mxCell id="Qy6W5IoDHR-1Pqb8D0mE-79" value="Manage trainee accounts" style="ellipse;whiteSpace=wrap;html=1;" parent="1" vertex="1">
          <mxGeometry x="515" y="680" width="140" height="70" as="geometry" />
        </mxCell>
        <mxCell id="Qy6W5IoDHR-1Pqb8D0mE-95" value="include" style="edgeStyle=none;rounded=0;orthogonalLoop=1;jettySize=auto;html=1;endArrow=open;endFill=0;dashed=1;" parent="1" source="Ier1LVSKaCVLYA_BxDD0-4" target="Qy6W5IoDHR-1Pqb8D0mE-30" edge="1">
          <mxGeometry relative="1" as="geometry">
            <mxPoint x="570" y="495" as="sourcePoint" />
            <mxPoint x="442.8013250753056" y="577.3050249512728" as="targetPoint" />
          </mxGeometry>
        </mxCell>
        <mxCell id="Qy6W5IoDHR-1Pqb8D0mE-101" value="extend" style="edgeStyle=none;rounded=0;orthogonalLoop=1;jettySize=auto;html=1;endArrow=open;endFill=0;dashed=1;" parent="1" source="Ier1LVSKaCVLYA_BxDD0-4" target="Ier1LVSKaCVLYA_BxDD0-6" edge="1">
          <mxGeometry relative="1" as="geometry">
            <mxPoint x="599.9969323489229" y="1029.9963868179098" as="sourcePoint" />
            <mxPoint x="600" y="960" as="targetPoint" />
          </mxGeometry>
        </mxCell>
        <mxCell id="Qy6W5IoDHR-1Pqb8D0mE-102" value="extend" style="edgeStyle=none;rounded=0;orthogonalLoop=1;jettySize=auto;html=1;endArrow=open;endFill=0;dashed=1;" parent="1" source="Ier1LVSKaCVLYA_BxDD0-4" target="Ier1LVSKaCVLYA_BxDD0-1" edge="1">
          <mxGeometry relative="1" as="geometry">
            <mxPoint x="810.9462571152678" y="520.2939856085268" as="sourcePoint" />
            <mxPoint x="789.2514604063601" y="439.6929765238502" as="targetPoint" />
          </mxGeometry>
        </mxCell>
        <mxCell id="Qy6W5IoDHR-1Pqb8D0mE-110" style="edgeStyle=none;rounded=0;orthogonalLoop=1;jettySize=auto;html=1;entryX=0.5;entryY=0.5;entryDx=0;entryDy=0;entryPerimeter=0;endArrow=none;endFill=0;exitX=1;exitY=0.5;exitDx=0;exitDy=0;" parent="1" source="Qy6W5IoDHR-1Pqb8D0mE-105" target="GxRgigIWufkrvGBZ6i5c-5" edge="1">
          <mxGeometry relative="1" as="geometry" />
        </mxCell>
        <mxCell id="Qy6W5IoDHR-1Pqb8D0mE-105" value="Manage Course Categories" style="ellipse;whiteSpace=wrap;html=1;" parent="1" vertex="1">
          <mxGeometry x="520" y="560" width="140" height="70" as="geometry" />
        </mxCell>
        <mxCell id="Qy6W5IoDHR-1Pqb8D0mE-107" value="include" style="edgeStyle=none;rounded=0;orthogonalLoop=1;jettySize=auto;html=1;endArrow=open;endFill=0;dashed=1;" parent="1" source="Qy6W5IoDHR-1Pqb8D0mE-79" target="Qy6W5IoDHR-1Pqb8D0mE-30" edge="1">
          <mxGeometry relative="1" as="geometry">
            <mxPoint x="490" y="760" as="sourcePoint" />
            <mxPoint x="470" y="605" as="targetPoint" />
          </mxGeometry>
        </mxCell>
        <mxCell id="Qy6W5IoDHR-1Pqb8D0mE-111" value="include" style="edgeStyle=none;rounded=0;orthogonalLoop=1;jettySize=auto;html=1;endArrow=open;endFill=0;dashed=1;exitX=0;exitY=0.5;exitDx=0;exitDy=0;" parent="1" source="Qy6W5IoDHR-1Pqb8D0mE-105" target="Qy6W5IoDHR-1Pqb8D0mE-30" edge="1">
          <mxGeometry relative="1" as="geometry">
            <mxPoint x="564.8869560781648" y="708.2380247921317" as="sourcePoint" />
            <mxPoint x="432.15181087739325" y="629.9078882457325" as="targetPoint" />
          </mxGeometry>
        </mxCell>
        <mxCell id="Qy6W5IoDHR-1Pqb8D0mE-112" value="Search for trainees by name and age" style="ellipse;whiteSpace=wrap;html=1;" parent="1" vertex="1">
          <mxGeometry x="484" y="880" width="130" height="70" as="geometry" />
        </mxCell>
        <mxCell id="Qy6W5IoDHR-1Pqb8D0mE-115" value="Create accounts&amp;nbsp; of trainers and staffs" style="ellipse;whiteSpace=wrap;html=1;" parent="1" vertex="1">
          <mxGeometry x="320" y="240" width="120" height="70" as="geometry" />
        </mxCell>
        <mxCell id="Qy6W5IoDHR-1Pqb8D0mE-117" value="extend" style="edgeStyle=none;rounded=0;orthogonalLoop=1;jettySize=auto;html=1;endArrow=open;endFill=0;dashed=1;" parent="1" source="Qy6W5IoDHR-1Pqb8D0mE-115" target="Qy6W5IoDHR-1Pqb8D0mE-30" edge="1">
          <mxGeometry relative="1" as="geometry">
            <mxPoint x="251.07874201359823" y="538.931998006371" as="sourcePoint" />
            <mxPoint x="330" y="340" as="targetPoint" />
          </mxGeometry>
        </mxCell>
        <mxCell id="Qy6W5IoDHR-1Pqb8D0mE-118" value="extend" style="edgeStyle=none;rounded=0;orthogonalLoop=1;jettySize=auto;html=1;endArrow=open;endFill=0;dashed=1;entryX=0;entryY=0.5;entryDx=0;entryDy=0;" parent="1" source="GxRgigIWufkrvGBZ6i5c-12" target="Qy6W5IoDHR-1Pqb8D0mE-115" edge="1">
          <mxGeometry relative="1" as="geometry">
            <mxPoint x="239.99693234892288" y="299.99638681790975" as="sourcePoint" />
            <mxPoint x="240" y="230" as="targetPoint" />
          </mxGeometry>
        </mxCell>
        <mxCell id="Qy6W5IoDHR-1Pqb8D0mE-119" value="Edit/Delete accounts profiles" style="ellipse;whiteSpace=wrap;html=1;" parent="1" vertex="1">
          <mxGeometry x="320" y="150" width="120" height="70" as="geometry" />
        </mxCell>
        <mxCell id="Qy6W5IoDHR-1Pqb8D0mE-120" value="extend" style="edgeStyle=none;rounded=0;orthogonalLoop=1;jettySize=auto;html=1;endArrow=open;endFill=0;dashed=1;" parent="1" source="GxRgigIWufkrvGBZ6i5c-12" target="Qy6W5IoDHR-1Pqb8D0mE-119" edge="1">
          <mxGeometry relative="1" as="geometry">
            <mxPoint x="238.1491845416815" y="224.34552657052427" as="sourcePoint" />
            <mxPoint x="330" y="295" as="targetPoint" />
          </mxGeometry>
        </mxCell>
        <mxCell id="Qy6W5IoDHR-1Pqb8D0mE-121" value="Reset password" style="ellipse;whiteSpace=wrap;html=1;" parent="1" vertex="1">
          <mxGeometry x="320" y="60" width="120" height="70" as="geometry" />
        </mxCell>
        <mxCell id="Qy6W5IoDHR-1Pqb8D0mE-122" value="extend" style="edgeStyle=none;rounded=0;orthogonalLoop=1;jettySize=auto;html=1;endArrow=open;endFill=0;dashed=1;" parent="1" source="GxRgigIWufkrvGBZ6i5c-12" target="Qy6W5IoDHR-1Pqb8D0mE-121" edge="1">
          <mxGeometry relative="1" as="geometry">
            <mxPoint x="238.1491845416815" y="224.34552657052427" as="sourcePoint" />
            <mxPoint x="330" y="295" as="targetPoint" />
          </mxGeometry>
        </mxCell>
        <mxCell id="Qy6W5IoDHR-1Pqb8D0mE-123" value="include" style="edgeStyle=none;rounded=0;orthogonalLoop=1;jettySize=auto;html=1;endArrow=open;endFill=0;dashed=1;" parent="1" source="GxRgigIWufkrvGBZ6i5c-12" target="Qy6W5IoDHR-1Pqb8D0mE-29" edge="1">
          <mxGeometry relative="1" as="geometry">
            <mxPoint x="390" y="430" as="sourcePoint" />
            <mxPoint x="190" y="70" as="targetPoint" />
          </mxGeometry>
        </mxCell>
        <mxCell id="Qy6W5IoDHR-1Pqb8D0mE-124" value="Create trainee accounts&amp;nbsp;" style="ellipse;whiteSpace=wrap;html=1;" parent="1" vertex="1">
          <mxGeometry x="320" y="880" width="120" height="70" as="geometry" />
        </mxCell>
        <mxCell id="Qy6W5IoDHR-1Pqb8D0mE-125" value="extend" style="edgeStyle=none;rounded=0;orthogonalLoop=1;jettySize=auto;html=1;endArrow=open;endFill=0;dashed=1;" parent="1" source="Qy6W5IoDHR-1Pqb8D0mE-79" target="Qy6W5IoDHR-1Pqb8D0mE-124" edge="1">
          <mxGeometry relative="1" as="geometry">
            <mxPoint x="549.9969323489229" y="929.9963868179098" as="sourcePoint" />
            <mxPoint x="550" y="860" as="targetPoint" />
          </mxGeometry>
        </mxCell>
        <mxCell id="Qy6W5IoDHR-1Pqb8D0mE-126" value="Update/Delete account profiles of trainees" style="ellipse;whiteSpace=wrap;html=1;" parent="1" vertex="1">
          <mxGeometry x="640" y="880" width="120" height="70" as="geometry" />
        </mxCell>
        <mxCell id="Qy6W5IoDHR-1Pqb8D0mE-127" value="extend" style="edgeStyle=none;rounded=0;orthogonalLoop=1;jettySize=auto;html=1;endArrow=open;endFill=0;dashed=1;" parent="1" source="Qy6W5IoDHR-1Pqb8D0mE-79" target="Qy6W5IoDHR-1Pqb8D0mE-126" edge="1">
          <mxGeometry relative="1" as="geometry">
            <mxPoint x="553.7872461115992" y="771.2886923317249" as="sourcePoint" />
            <mxPoint x="432.8615148825072" y="840.5077057814244" as="targetPoint" />
          </mxGeometry>
        </mxCell>
        <mxCell id="Qy6W5IoDHR-1Pqb8D0mE-128" value="extend" style="edgeStyle=none;rounded=0;orthogonalLoop=1;jettySize=auto;html=1;endArrow=open;endFill=0;dashed=1;" parent="1" source="Qy6W5IoDHR-1Pqb8D0mE-79" target="Qy6W5IoDHR-1Pqb8D0mE-112" edge="1">
          <mxGeometry relative="1" as="geometry">
            <mxPoint x="549.117737143853" y="859.0364063798977" as="sourcePoint" />
            <mxPoint x="436.47967200855646" y="912.8668228530687" as="targetPoint" />
          </mxGeometry>
        </mxCell>
        <mxCell id="WC6QpQHkVPgM9P2j1Ifc-1" value="extend" style="edgeStyle=none;rounded=0;orthogonalLoop=1;jettySize=auto;html=1;endArrow=open;endFill=0;dashed=1;" parent="1" source="Qy6W5IoDHR-1Pqb8D0mE-124" target="Qy6W5IoDHR-1Pqb8D0mE-54" edge="1">
          <mxGeometry relative="1" as="geometry">
            <mxPoint x="549.117737143853" y="859.0364063798977" as="sourcePoint" />
            <mxPoint x="436.47967200855646" y="912.8668228530687" as="targetPoint" />
          </mxGeometry>
        </mxCell>
        <mxCell id="WC6QpQHkVPgM9P2j1Ifc-7" style="edgeStyle=none;rounded=0;orthogonalLoop=1;jettySize=auto;html=1;endArrow=none;endFill=0;entryX=1;entryY=0.5;entryDx=0;entryDy=0;" parent="1" source="WC6QpQHkVPgM9P2j1Ifc-6" target="Qy6W5IoDHR-1Pqb8D0mE-121" edge="1">
          <mxGeometry relative="1" as="geometry" />
        </mxCell>
        <mxCell id="WC6QpQHkVPgM9P2j1Ifc-8" style="edgeStyle=none;rounded=0;orthogonalLoop=1;jettySize=auto;html=1;endArrow=none;endFill=0;" parent="1" source="WC6QpQHkVPgM9P2j1Ifc-6" target="Qy6W5IoDHR-1Pqb8D0mE-119" edge="1">
          <mxGeometry relative="1" as="geometry" />
        </mxCell>
        <mxCell id="WC6QpQHkVPgM9P2j1Ifc-9" style="edgeStyle=none;rounded=0;orthogonalLoop=1;jettySize=auto;html=1;entryX=1;entryY=0.5;entryDx=0;entryDy=0;endArrow=none;endFill=0;" parent="1" source="WC6QpQHkVPgM9P2j1Ifc-6" target="Qy6W5IoDHR-1Pqb8D0mE-115" edge="1">
          <mxGeometry relative="1" as="geometry" />
        </mxCell>
        <mxCell id="WC6QpQHkVPgM9P2j1Ifc-6" value="Admin" style="shape=umlActor;verticalLabelPosition=bottom;verticalAlign=top;html=1;" parent="1" vertex="1">
          <mxGeometry x="534" y="130" width="30" height="60" as="geometry" />
        </mxCell>
        <mxCell id="WC6QpQHkVPgM9P2j1Ifc-14" style="edgeStyle=none;rounded=0;orthogonalLoop=1;jettySize=auto;html=1;endArrow=none;endFill=0;" parent="1" source="WC6QpQHkVPgM9P2j1Ifc-13" target="Qy6W5IoDHR-1Pqb8D0mE-124" edge="1">
          <mxGeometry relative="1" as="geometry" />
        </mxCell>
        <mxCell id="WC6QpQHkVPgM9P2j1Ifc-15" style="edgeStyle=none;rounded=0;orthogonalLoop=1;jettySize=auto;html=1;endArrow=none;endFill=0;" parent="1" source="WC6QpQHkVPgM9P2j1Ifc-13" target="Qy6W5IoDHR-1Pqb8D0mE-112" edge="1">
          <mxGeometry relative="1" as="geometry" />
        </mxCell>
        <mxCell id="WC6QpQHkVPgM9P2j1Ifc-16" style="edgeStyle=none;rounded=0;orthogonalLoop=1;jettySize=auto;html=1;endArrow=none;endFill=0;" parent="1" source="WC6QpQHkVPgM9P2j1Ifc-13" target="Qy6W5IoDHR-1Pqb8D0mE-126" edge="1">
          <mxGeometry relative="1" as="geometry" />
        </mxCell>
        <mxCell id="WC6QpQHkVPgM9P2j1Ifc-13" value="Staff" style="shape=umlActor;verticalLabelPosition=bottom;verticalAlign=top;html=1;" parent="1" vertex="1">
          <mxGeometry x="534" y="1060" width="30" height="60" as="geometry" />
        </mxCell>
      </root>
    </mxGraphModel>
  </diagram>
  <diagram id="sttfoz0d-OyMYiwOoIls" name="Use Case for authentication">
    <mxGraphModel dx="1038" dy="656" grid="1" gridSize="10" guides="1" tooltips="1" connect="1" arrows="1" fold="1" page="1" pageScale="1" pageWidth="827" pageHeight="1169" math="0" shadow="0">
      <root>
        <mxCell id="ZrThpS_tE8khx0WwWRpb-0" />
        <mxCell id="ZrThpS_tE8khx0WwWRpb-1" parent="ZrThpS_tE8khx0WwWRpb-0" />
        <mxCell id="YDjMhTTil45SZEg2Mo30-0" style="edgeStyle=none;rounded=0;orthogonalLoop=1;jettySize=auto;html=1;endArrow=none;endFill=0;entryX=0;entryY=0.5;entryDx=0;entryDy=0;" parent="ZrThpS_tE8khx0WwWRpb-1" source="YDjMhTTil45SZEg2Mo30-61" target="YDjMhTTil45SZEg2Mo30-25" edge="1">
          <mxGeometry relative="1" as="geometry">
            <mxPoint x="290" y="182.0588235294117" as="sourcePoint" />
          </mxGeometry>
        </mxCell>
        <mxCell id="YDjMhTTil45SZEg2Mo30-4" style="edgeStyle=none;rounded=0;orthogonalLoop=1;jettySize=auto;html=1;endArrow=none;endFill=0;entryX=1;entryY=0.5;entryDx=0;entryDy=0;" parent="ZrThpS_tE8khx0WwWRpb-1" source="YDjMhTTil45SZEg2Mo30-8" target="YDjMhTTil45SZEg2Mo30-35" edge="1">
          <mxGeometry relative="1" as="geometry" />
        </mxCell>
        <mxCell id="YDjMhTTil45SZEg2Mo30-5" style="edgeStyle=none;rounded=0;orthogonalLoop=1;jettySize=auto;html=1;endArrow=none;endFill=0;" parent="ZrThpS_tE8khx0WwWRpb-1" source="YDjMhTTil45SZEg2Mo30-8" target="YDjMhTTil45SZEg2Mo30-26" edge="1">
          <mxGeometry relative="1" as="geometry" />
        </mxCell>
        <mxCell id="YDjMhTTil45SZEg2Mo30-139" style="edgeStyle=none;rounded=0;orthogonalLoop=1;jettySize=auto;html=1;entryX=1;entryY=0.5;entryDx=0;entryDy=0;endArrow=none;endFill=0;exitX=0.453;exitY=0.68;exitDx=0;exitDy=0;exitPerimeter=0;" parent="ZrThpS_tE8khx0WwWRpb-1" source="YDjMhTTil45SZEg2Mo30-8" target="YDjMhTTil45SZEg2Mo30-133" edge="1">
          <mxGeometry relative="1" as="geometry">
            <mxPoint x="680.945945945946" y="630" as="sourcePoint" />
          </mxGeometry>
        </mxCell>
        <mxCell id="YDjMhTTil45SZEg2Mo30-140" style="edgeStyle=none;rounded=0;orthogonalLoop=1;jettySize=auto;html=1;entryX=1;entryY=0.5;entryDx=0;entryDy=0;endArrow=none;endFill=0;" parent="ZrThpS_tE8khx0WwWRpb-1" source="YDjMhTTil45SZEg2Mo30-8" target="YDjMhTTil45SZEg2Mo30-52" edge="1">
          <mxGeometry relative="1" as="geometry">
            <mxPoint x="682.1698113207547" y="630" as="sourcePoint" />
          </mxGeometry>
        </mxCell>
        <mxCell id="YDjMhTTil45SZEg2Mo30-8" value="Staff" style="shape=umlActor;verticalLabelPosition=bottom;verticalAlign=top;html=1;" parent="ZrThpS_tE8khx0WwWRpb-1" vertex="1">
          <mxGeometry x="750" y="540" width="30" height="60" as="geometry" />
        </mxCell>
        <mxCell id="YDjMhTTil45SZEg2Mo30-9" style="edgeStyle=none;rounded=0;orthogonalLoop=1;jettySize=auto;html=1;endArrow=none;endFill=0;entryX=0;entryY=0.5;entryDx=0;entryDy=0;" parent="ZrThpS_tE8khx0WwWRpb-1" source="YDjMhTTil45SZEg2Mo30-13" target="YDjMhTTil45SZEg2Mo30-24" edge="1">
          <mxGeometry relative="1" as="geometry" />
        </mxCell>
        <mxCell id="YDjMhTTil45SZEg2Mo30-12" style="edgeStyle=none;rounded=0;orthogonalLoop=1;jettySize=auto;html=1;endArrow=none;endFill=0;" parent="ZrThpS_tE8khx0WwWRpb-1" source="YDjMhTTil45SZEg2Mo30-13" target="YDjMhTTil45SZEg2Mo30-26" edge="1">
          <mxGeometry relative="1" as="geometry" />
        </mxCell>
        <mxCell id="YDjMhTTil45SZEg2Mo30-13" value="Trainer" style="shape=umlActor;verticalLabelPosition=bottom;verticalAlign=top;html=1;" parent="ZrThpS_tE8khx0WwWRpb-1" vertex="1">
          <mxGeometry x="40" y="530" width="30" height="60" as="geometry" />
        </mxCell>
        <mxCell id="YDjMhTTil45SZEg2Mo30-14" style="edgeStyle=none;rounded=0;orthogonalLoop=1;jettySize=auto;html=1;endArrow=none;endFill=0;" parent="ZrThpS_tE8khx0WwWRpb-1" source="YDjMhTTil45SZEg2Mo30-17" target="YDjMhTTil45SZEg2Mo30-32" edge="1">
          <mxGeometry relative="1" as="geometry" />
        </mxCell>
        <mxCell id="YDjMhTTil45SZEg2Mo30-16" style="rounded=0;orthogonalLoop=1;jettySize=auto;html=1;endArrow=none;endFill=0;" parent="ZrThpS_tE8khx0WwWRpb-1" source="YDjMhTTil45SZEg2Mo30-17" target="YDjMhTTil45SZEg2Mo30-30" edge="1">
          <mxGeometry relative="1" as="geometry" />
        </mxCell>
        <mxCell id="YDjMhTTil45SZEg2Mo30-17" value="Trainee" style="shape=umlActor;verticalLabelPosition=bottom;verticalAlign=top;html=1;" parent="ZrThpS_tE8khx0WwWRpb-1" vertex="1">
          <mxGeometry x="40" y="760" width="30" height="60" as="geometry" />
        </mxCell>
        <mxCell id="YDjMhTTil45SZEg2Mo30-18" value="Manage accounts of trainers and staffs&amp;nbsp;" style="ellipse;whiteSpace=wrap;html=1;" parent="ZrThpS_tE8khx0WwWRpb-1" vertex="1">
          <mxGeometry x="300" y="200" width="140" height="70" as="geometry" />
        </mxCell>
        <mxCell id="YDjMhTTil45SZEg2Mo30-24" value="Edit profile" style="ellipse;whiteSpace=wrap;html=1;" parent="ZrThpS_tE8khx0WwWRpb-1" vertex="1">
          <mxGeometry x="120" y="450" width="140" height="70" as="geometry" />
        </mxCell>
        <mxCell id="YDjMhTTil45SZEg2Mo30-25" value="Log in to the system" style="ellipse;whiteSpace=wrap;html=1;" parent="ZrThpS_tE8khx0WwWRpb-1" vertex="1">
          <mxGeometry x="120" y="40" width="140" height="70" as="geometry" />
        </mxCell>
        <mxCell id="YDjMhTTil45SZEg2Mo30-26" value="Log in to the system" style="ellipse;whiteSpace=wrap;html=1;" parent="ZrThpS_tE8khx0WwWRpb-1" vertex="1">
          <mxGeometry x="300" y="530" width="140" height="70" as="geometry" />
        </mxCell>
        <mxCell id="YDjMhTTil45SZEg2Mo30-28" value="include" style="edgeStyle=none;rounded=0;orthogonalLoop=1;jettySize=auto;html=1;endArrow=open;endFill=0;dashed=1;" parent="ZrThpS_tE8khx0WwWRpb-1" source="YDjMhTTil45SZEg2Mo30-24" target="YDjMhTTil45SZEg2Mo30-26" edge="1">
          <mxGeometry relative="1" as="geometry">
            <mxPoint x="366.11604059755905" y="604.1152616470199" as="sourcePoint" />
            <mxPoint x="481.8011445185075" y="540.8469922874838" as="targetPoint" />
          </mxGeometry>
        </mxCell>
        <mxCell id="YDjMhTTil45SZEg2Mo30-30" value="Log in to the system" style="ellipse;whiteSpace=wrap;html=1;" parent="ZrThpS_tE8khx0WwWRpb-1" vertex="1">
          <mxGeometry x="120" y="800" width="140" height="70" as="geometry" />
        </mxCell>
        <mxCell id="YDjMhTTil45SZEg2Mo30-32" value="View profile" style="ellipse;whiteSpace=wrap;html=1;" parent="ZrThpS_tE8khx0WwWRpb-1" vertex="1">
          <mxGeometry x="120" y="680" width="140" height="70" as="geometry" />
        </mxCell>
        <mxCell id="YDjMhTTil45SZEg2Mo30-33" value="include" style="edgeStyle=none;rounded=0;orthogonalLoop=1;jettySize=auto;html=1;endArrow=open;endFill=0;dashed=1;" parent="ZrThpS_tE8khx0WwWRpb-1" source="YDjMhTTil45SZEg2Mo30-32" target="YDjMhTTil45SZEg2Mo30-30" edge="1">
          <mxGeometry relative="1" as="geometry">
            <mxPoint x="130.00056863278684" y="789.3783897184035" as="sourcePoint" />
            <mxPoint x="244.71009663000564" y="760.6124758424985" as="targetPoint" />
          </mxGeometry>
        </mxCell>
        <mxCell id="YDjMhTTil45SZEg2Mo30-35" value="Manage trainee accounts" style="ellipse;whiteSpace=wrap;html=1;" parent="ZrThpS_tE8khx0WwWRpb-1" vertex="1">
          <mxGeometry x="400" y="640" width="140" height="70" as="geometry" />
        </mxCell>
        <mxCell id="YDjMhTTil45SZEg2Mo30-41" value="include" style="edgeStyle=none;rounded=0;orthogonalLoop=1;jettySize=auto;html=1;endArrow=open;endFill=0;dashed=1;" parent="ZrThpS_tE8khx0WwWRpb-1" source="YDjMhTTil45SZEg2Mo30-35" target="YDjMhTTil45SZEg2Mo30-26" edge="1">
          <mxGeometry relative="1" as="geometry">
            <mxPoint x="579" y="760" as="sourcePoint" />
            <mxPoint x="559" y="605" as="targetPoint" />
          </mxGeometry>
        </mxCell>
        <mxCell id="YDjMhTTil45SZEg2Mo30-44" value="Create accounts&amp;nbsp; of trainers and staffs" style="ellipse;whiteSpace=wrap;html=1;" parent="ZrThpS_tE8khx0WwWRpb-1" vertex="1">
          <mxGeometry x="120" y="360" width="140" height="70" as="geometry" />
        </mxCell>
        <mxCell id="YDjMhTTil45SZEg2Mo30-46" value="extend" style="edgeStyle=none;rounded=0;orthogonalLoop=1;jettySize=auto;html=1;endArrow=open;endFill=0;dashed=1;" parent="ZrThpS_tE8khx0WwWRpb-1" source="YDjMhTTil45SZEg2Mo30-18" target="YDjMhTTil45SZEg2Mo30-44" edge="1">
          <mxGeometry relative="1" as="geometry">
            <mxPoint x="479.9969323489229" y="319.99638681790975" as="sourcePoint" />
            <mxPoint x="480" y="250" as="targetPoint" />
          </mxGeometry>
        </mxCell>
        <mxCell id="YDjMhTTil45SZEg2Mo30-47" value="Edit/Delete accounts profiles" style="ellipse;whiteSpace=wrap;html=1;" parent="ZrThpS_tE8khx0WwWRpb-1" vertex="1">
          <mxGeometry x="120" y="280" width="140" height="70" as="geometry" />
        </mxCell>
        <mxCell id="YDjMhTTil45SZEg2Mo30-48" value="extend" style="edgeStyle=none;rounded=0;orthogonalLoop=1;jettySize=auto;html=1;endArrow=open;endFill=0;dashed=1;" parent="ZrThpS_tE8khx0WwWRpb-1" source="YDjMhTTil45SZEg2Mo30-18" target="YDjMhTTil45SZEg2Mo30-47" edge="1">
          <mxGeometry relative="1" as="geometry">
            <mxPoint x="478.1491845416815" y="244.34552657052427" as="sourcePoint" />
            <mxPoint x="570" y="315" as="targetPoint" />
          </mxGeometry>
        </mxCell>
        <mxCell id="YDjMhTTil45SZEg2Mo30-49" value="Reset password of all accounts in system" style="ellipse;whiteSpace=wrap;html=1;" parent="ZrThpS_tE8khx0WwWRpb-1" vertex="1">
          <mxGeometry x="120" y="120" width="140" height="70" as="geometry" />
        </mxCell>
        <mxCell id="YDjMhTTil45SZEg2Mo30-50" value="extend" style="edgeStyle=none;rounded=0;orthogonalLoop=1;jettySize=auto;html=1;endArrow=open;endFill=0;dashed=1;" parent="ZrThpS_tE8khx0WwWRpb-1" source="YDjMhTTil45SZEg2Mo30-18" target="YDjMhTTil45SZEg2Mo30-49" edge="1">
          <mxGeometry relative="1" as="geometry">
            <mxPoint x="478.1491845416815" y="244.34552657052427" as="sourcePoint" />
            <mxPoint x="570" y="315" as="targetPoint" />
          </mxGeometry>
        </mxCell>
        <mxCell id="YDjMhTTil45SZEg2Mo30-51" value="include" style="edgeStyle=none;rounded=0;orthogonalLoop=1;jettySize=auto;html=1;endArrow=open;endFill=0;dashed=1;" parent="ZrThpS_tE8khx0WwWRpb-1" source="YDjMhTTil45SZEg2Mo30-18" target="YDjMhTTil45SZEg2Mo30-25" edge="1">
          <mxGeometry relative="1" as="geometry">
            <mxPoint x="630" y="450" as="sourcePoint" />
            <mxPoint x="430" y="90" as="targetPoint" />
          </mxGeometry>
        </mxCell>
        <mxCell id="YDjMhTTil45SZEg2Mo30-52" value="Create trainee accounts&amp;nbsp;" style="ellipse;whiteSpace=wrap;html=1;" parent="ZrThpS_tE8khx0WwWRpb-1" vertex="1">
          <mxGeometry x="520" y="830" width="140" height="70" as="geometry" />
        </mxCell>
        <mxCell id="YDjMhTTil45SZEg2Mo30-53" value="extend" style="edgeStyle=none;rounded=0;orthogonalLoop=1;jettySize=auto;html=1;endArrow=open;endFill=0;dashed=1;entryX=0;entryY=0.5;entryDx=0;entryDy=0;" parent="ZrThpS_tE8khx0WwWRpb-1" source="YDjMhTTil45SZEg2Mo30-35" target="YDjMhTTil45SZEg2Mo30-52" edge="1">
          <mxGeometry relative="1" as="geometry">
            <mxPoint x="558.9969323489229" y="959.9963868179098" as="sourcePoint" />
            <mxPoint x="559" y="890" as="targetPoint" />
          </mxGeometry>
        </mxCell>
        <mxCell id="YDjMhTTil45SZEg2Mo30-58" style="edgeStyle=none;rounded=0;orthogonalLoop=1;jettySize=auto;html=1;endArrow=none;endFill=0;" parent="ZrThpS_tE8khx0WwWRpb-1" source="YDjMhTTil45SZEg2Mo30-61" target="YDjMhTTil45SZEg2Mo30-49" edge="1">
          <mxGeometry relative="1" as="geometry" />
        </mxCell>
        <mxCell id="YDjMhTTil45SZEg2Mo30-59" style="edgeStyle=none;rounded=0;orthogonalLoop=1;jettySize=auto;html=1;endArrow=none;endFill=0;entryX=0;entryY=0.5;entryDx=0;entryDy=0;" parent="ZrThpS_tE8khx0WwWRpb-1" source="YDjMhTTil45SZEg2Mo30-61" target="YDjMhTTil45SZEg2Mo30-47" edge="1">
          <mxGeometry relative="1" as="geometry" />
        </mxCell>
        <mxCell id="YDjMhTTil45SZEg2Mo30-60" style="edgeStyle=none;rounded=0;orthogonalLoop=1;jettySize=auto;html=1;endArrow=none;endFill=0;entryX=0;entryY=0.5;entryDx=0;entryDy=0;" parent="ZrThpS_tE8khx0WwWRpb-1" source="YDjMhTTil45SZEg2Mo30-61" target="YDjMhTTil45SZEg2Mo30-44" edge="1">
          <mxGeometry relative="1" as="geometry" />
        </mxCell>
        <mxCell id="YDjMhTTil45SZEg2Mo30-135" style="rounded=0;orthogonalLoop=1;jettySize=auto;html=1;endArrow=none;endFill=0;" parent="ZrThpS_tE8khx0WwWRpb-1" source="YDjMhTTil45SZEg2Mo30-61" target="YDjMhTTil45SZEg2Mo30-18" edge="1">
          <mxGeometry relative="1" as="geometry" />
        </mxCell>
        <mxCell id="YDjMhTTil45SZEg2Mo30-61" value="Admin" style="shape=umlActor;verticalLabelPosition=bottom;verticalAlign=top;html=1;" parent="ZrThpS_tE8khx0WwWRpb-1" vertex="1">
          <mxGeometry x="40" y="200" width="30" height="60" as="geometry" />
        </mxCell>
        <mxCell id="YDjMhTTil45SZEg2Mo30-133" value="Edit/Delete accounts profiles" style="ellipse;whiteSpace=wrap;html=1;" parent="ZrThpS_tE8khx0WwWRpb-1" vertex="1">
          <mxGeometry x="520" y="750" width="140" height="70" as="geometry" />
        </mxCell>
        <mxCell id="YDjMhTTil45SZEg2Mo30-134" value="extend" style="edgeStyle=none;rounded=0;orthogonalLoop=1;jettySize=auto;html=1;endArrow=open;endFill=0;dashed=1;" parent="ZrThpS_tE8khx0WwWRpb-1" source="YDjMhTTil45SZEg2Mo30-35" target="YDjMhTTil45SZEg2Mo30-133" edge="1">
          <mxGeometry relative="1" as="geometry">
            <mxPoint x="571.9606783939021" y="786.1186514450033" as="sourcePoint" />
            <mxPoint x="429.7908229385255" y="924.9601727429017" as="targetPoint" />
          </mxGeometry>
        </mxCell>
        <mxCell id="YDjMhTTil45SZEg2Mo30-137" value="extend" style="edgeStyle=none;rounded=0;orthogonalLoop=1;jettySize=auto;html=1;endArrow=open;endFill=0;dashed=1;" parent="ZrThpS_tE8khx0WwWRpb-1" source="YDjMhTTil45SZEg2Mo30-30" target="YDjMhTTil45SZEg2Mo30-35" edge="1">
          <mxGeometry relative="1" as="geometry">
            <mxPoint x="470.6195401399223" y="668.0248431140789" as="sourcePoint" />
            <mxPoint x="379.9952148144492" y="869.9979504140387" as="targetPoint" />
          </mxGeometry>
        </mxCell>
        <mxCell id="YDjMhTTil45SZEg2Mo30-138" value="extend" style="edgeStyle=none;rounded=0;orthogonalLoop=1;jettySize=auto;html=1;endArrow=open;endFill=0;dashed=1;" parent="ZrThpS_tE8khx0WwWRpb-1" source="YDjMhTTil45SZEg2Mo30-26" target="YDjMhTTil45SZEg2Mo30-18" edge="1">
          <mxGeometry relative="1" as="geometry">
            <mxPoint x="610" y="450" as="sourcePoint" />
            <mxPoint x="400" y="540" as="targetPoint" />
          </mxGeometry>
        </mxCell>
        <mxCell id="p1jE_44SiPc-n3_x849z-0" value="Search for trainees and trainers assigned to a course" style="ellipse;whiteSpace=wrap;html=1;" parent="ZrThpS_tE8khx0WwWRpb-1" vertex="1">
          <mxGeometry x="520" y="260" width="140" height="70" as="geometry" />
        </mxCell>
        <mxCell id="p1jE_44SiPc-n3_x849z-1" value="Manage Courses" style="ellipse;whiteSpace=wrap;html=1;" parent="ZrThpS_tE8khx0WwWRpb-1" vertex="1">
          <mxGeometry x="400" y="360" width="140" height="70" as="geometry" />
        </mxCell>
        <mxCell id="p1jE_44SiPc-n3_x849z-2" value="Assign/Remove trainers and trainees to/from a specific course" style="ellipse;whiteSpace=wrap;html=1;" parent="ZrThpS_tE8khx0WwWRpb-1" vertex="1">
          <mxGeometry x="520" y="460" width="140" height="70" as="geometry" />
        </mxCell>
        <mxCell id="p1jE_44SiPc-n3_x849z-3" value="extend" style="edgeStyle=none;rounded=0;orthogonalLoop=1;jettySize=auto;html=1;endArrow=open;endFill=0;dashed=1;" parent="ZrThpS_tE8khx0WwWRpb-1" source="p1jE_44SiPc-n3_x849z-1" target="p1jE_44SiPc-n3_x849z-2" edge="1">
          <mxGeometry relative="1" as="geometry">
            <mxPoint x="629.9969323489229" y="1039.9963868179098" as="sourcePoint" />
            <mxPoint x="630" y="970" as="targetPoint" />
          </mxGeometry>
        </mxCell>
        <mxCell id="p1jE_44SiPc-n3_x849z-4" value="extend" style="edgeStyle=none;rounded=0;orthogonalLoop=1;jettySize=auto;html=1;endArrow=open;endFill=0;dashed=1;" parent="ZrThpS_tE8khx0WwWRpb-1" source="p1jE_44SiPc-n3_x849z-1" target="p1jE_44SiPc-n3_x849z-0" edge="1">
          <mxGeometry relative="1" as="geometry">
            <mxPoint x="840.9462571152678" y="530.2939856085268" as="sourcePoint" />
            <mxPoint x="819.2514604063601" y="449.6929765238502" as="targetPoint" />
          </mxGeometry>
        </mxCell>
        <mxCell id="p1jE_44SiPc-n3_x849z-5" value="include" style="edgeStyle=none;rounded=0;orthogonalLoop=1;jettySize=auto;html=1;endArrow=open;endFill=0;dashed=1;" parent="ZrThpS_tE8khx0WwWRpb-1" source="YDjMhTTil45SZEg2Mo30-26" target="p1jE_44SiPc-n3_x849z-1" edge="1">
          <mxGeometry relative="1" as="geometry">
            <mxPoint x="480" y="470" as="sourcePoint" />
            <mxPoint x="432.31865230785684" y="598.2527343590475" as="targetPoint" />
          </mxGeometry>
        </mxCell>
        <mxCell id="p1jE_44SiPc-n3_x849z-6" value="Manage Course Categories" style="ellipse;whiteSpace=wrap;html=1;" parent="ZrThpS_tE8khx0WwWRpb-1" vertex="1">
          <mxGeometry x="520" y="170" width="140" height="70" as="geometry" />
        </mxCell>
        <mxCell id="p1jE_44SiPc-n3_x849z-7" value="extend" style="edgeStyle=none;rounded=0;orthogonalLoop=1;jettySize=auto;html=1;endArrow=open;endFill=0;dashed=1;entryX=0;entryY=0.5;entryDx=0;entryDy=0;" parent="ZrThpS_tE8khx0WwWRpb-1" source="p1jE_44SiPc-n3_x849z-1" target="p1jE_44SiPc-n3_x849z-6" edge="1">
          <mxGeometry relative="1" as="geometry">
            <mxPoint x="516.0786062810173" y="375.0069417663831" as="sourcePoint" />
            <mxPoint x="563.9852971200694" y="335.0122523999423" as="targetPoint" />
          </mxGeometry>
        </mxCell>
        <mxCell id="p1jE_44SiPc-n3_x849z-9" style="edgeStyle=none;rounded=0;orthogonalLoop=1;jettySize=auto;html=1;endArrow=none;endFill=0;" parent="ZrThpS_tE8khx0WwWRpb-1" source="p1jE_44SiPc-n3_x849z-8" target="p1jE_44SiPc-n3_x849z-6" edge="1">
          <mxGeometry relative="1" as="geometry" />
        </mxCell>
        <mxCell id="p1jE_44SiPc-n3_x849z-10" style="edgeStyle=none;rounded=0;orthogonalLoop=1;jettySize=auto;html=1;endArrow=none;endFill=0;" parent="ZrThpS_tE8khx0WwWRpb-1" source="p1jE_44SiPc-n3_x849z-8" target="p1jE_44SiPc-n3_x849z-0" edge="1">
          <mxGeometry relative="1" as="geometry" />
        </mxCell>
        <mxCell id="p1jE_44SiPc-n3_x849z-11" style="edgeStyle=none;rounded=0;orthogonalLoop=1;jettySize=auto;html=1;endArrow=none;endFill=0;" parent="ZrThpS_tE8khx0WwWRpb-1" source="p1jE_44SiPc-n3_x849z-8" target="p1jE_44SiPc-n3_x849z-1" edge="1">
          <mxGeometry relative="1" as="geometry" />
        </mxCell>
        <mxCell id="p1jE_44SiPc-n3_x849z-12" style="edgeStyle=none;rounded=0;orthogonalLoop=1;jettySize=auto;html=1;endArrow=none;endFill=0;" parent="ZrThpS_tE8khx0WwWRpb-1" source="p1jE_44SiPc-n3_x849z-8" target="p1jE_44SiPc-n3_x849z-2" edge="1">
          <mxGeometry relative="1" as="geometry" />
        </mxCell>
        <mxCell id="p1jE_44SiPc-n3_x849z-8" value="Staff" style="shape=umlActor;verticalLabelPosition=bottom;verticalAlign=top;html=1;" parent="ZrThpS_tE8khx0WwWRpb-1" vertex="1">
          <mxGeometry x="740" y="280" width="30" height="60" as="geometry" />
        </mxCell>
      </root>
    </mxGraphModel>
  </diagram>
</mxfile>
